<svg width="119" height="60" fill="none" xmlns="http://www.w3.org/2000/svg"><g clip-path="url(#clip0_3939_45555)"><mask id="mask0_3939_45555" style="mask-type:luminance" maskUnits="userSpaceOnUse" x="0" y="0" width="119" height="60"><path d="M119 0.225586H0V59.1036H119V0.225586Z" fill="white"/></mask><g mask="url(#mask0_3939_45555)"><path d="M60.11 22.1701C60.1013 22.1701 60.1013 22.1701 60.11 22.1701C63.9083 22.1701 67.5846 21.6647 71.0953 20.7322C69.475 19.1548 67.8285 17.6907 66.1559 16.3398C64.1087 18.0828 62.0876 20.0175 60.11 22.1701Z" fill="#FF6600"/></g><mask id="mask1_3939_45555" style="mask-type:luminance" maskUnits="userSpaceOnUse" x="0" y="0" width="119" height="60"><path d="M119 0.225586H0V59.1036H119V0.225586Z" fill="white"/></mask><g mask="url(#mask1_3939_45555)"><path d="M11.3604 0.669999C11.3604 0.669999 33.4703 -1.30829 54.047 16.3394C56.042 14.7272 58.0631 13.2805 60.0929 11.9732C36.5455 -3.20814 11.3604 0.669999 11.3604 0.669999Z" fill="#FF6600"/></g><mask id="mask2_3939_45555" style="mask-type:luminance" maskUnits="userSpaceOnUse" x="0" y="0" width="119" height="60"><path d="M119 0.225586H0V59.1036H119V0.225586Z" fill="white"/></mask><g mask="url(#mask2_3939_45555)"><path d="M54.0557 16.3311C52.383 17.6819 50.7366 19.146 49.1162 20.7234C52.6183 21.6559 56.3033 22.1613 60.1015 22.1613C58.1066 20.0175 56.0855 18.0828 54.0557 16.3311Z" fill="#FF6600"/></g><mask id="mask3_3939_45555" style="mask-type:luminance" maskUnits="userSpaceOnUse" x="0" y="0" width="119" height="60"><path d="M119 0.225586H0V59.1036H119V0.225586Z" fill="white"/></mask><g mask="url(#mask3_3939_45555)"><path d="M108.843 0.670336C108.843 0.670336 83.6576 -3.2078 60.1016 11.9649C62.1314 13.2721 64.1611 14.7275 66.1474 16.331C86.7241 -1.30795 108.843 0.670336 108.843 0.670336Z" fill="#FF6600"/></g><mask id="mask4_3939_45555" style="mask-type:luminance" maskUnits="userSpaceOnUse" x="0" y="0" width="119" height="60"><path d="M119 0.225586H0V59.1036H119V0.225586Z" fill="white"/></mask><g mask="url(#mask4_3939_45555)"><path d="M28.6782 53.3604H28.0684V59.0512H28.6782V53.3604Z" fill="white"/></g><mask id="mask5_3939_45555" style="mask-type:luminance" maskUnits="userSpaceOnUse" x="0" y="0" width="119" height="60"><path d="M119 0.225586H0V59.1036H119V0.225586Z" fill="white"/></mask><g mask="url(#mask5_3939_45555)"><path d="M35.5253 59.0512L32.5024 54.4933V59.0512H31.8926V53.3604H32.4675L35.4905 57.9095V53.3604H36.1003V59.0512H35.5253Z" fill="white"/></g><mask id="mask6_3939_45555" style="mask-type:luminance" maskUnits="userSpaceOnUse" x="0" y="0" width="119" height="60"><path d="M119 0.225586H0V59.1036H119V0.225586Z" fill="white"/></mask><g mask="url(#mask6_3939_45555)"><path d="M42.9658 59.0512L39.9429 54.4933V59.0512H39.3418V53.3604H39.9168L42.931 57.9095V53.3604H43.5408V59.0512H42.9658Z" fill="white"/></g><mask id="mask7_3939_45555" style="mask-type:luminance" maskUnits="userSpaceOnUse" x="0" y="0" width="119" height="60"><path d="M119 0.225586H0V59.1036H119V0.225586Z" fill="white"/></mask><g mask="url(#mask7_3939_45555)"><path d="M50.0563 58.5105C49.673 58.894 49.1677 59.1031 48.6015 59.1031C48.0352 59.1031 47.53 58.894 47.1466 58.5105C46.6152 57.9789 46.6152 57.4124 46.6152 56.2098C46.6152 55.0071 46.6152 54.4406 47.1466 53.909C47.53 53.5256 48.0352 53.3164 48.6015 53.3164C49.1677 53.3164 49.673 53.5256 50.0563 53.909C50.5877 54.4406 50.5877 55.0071 50.5877 56.2098C50.5964 57.4124 50.5964 57.9702 50.0563 58.5105ZM49.5859 54.2663C49.342 54.0136 48.9761 53.8567 48.6015 53.8567C48.2269 53.8567 47.8697 54.0049 47.6171 54.2663C47.2599 54.6324 47.2163 55.0158 47.2163 56.2098C47.2163 57.4037 47.2599 57.7872 47.6171 58.1532C47.861 58.4059 48.2269 58.5628 48.6015 58.5628C48.9761 58.5628 49.3332 58.4146 49.5859 58.1532C49.9431 57.7872 49.9866 57.4037 49.9866 56.2098C49.9866 55.0158 49.9431 54.6324 49.5859 54.2663Z" fill="white"/></g><mask id="mask8_3939_45555" style="mask-type:luminance" maskUnits="userSpaceOnUse" x="0" y="0" width="119" height="60"><path d="M119 0.225586H0V59.1036H119V0.225586Z" fill="white"/></mask><g mask="url(#mask8_3939_45555)"><path d="M55.3618 59.0512H54.8652L53.001 53.3604H53.6369L55.1179 57.9618L56.5901 53.3604H57.2348L55.3618 59.0512Z" fill="white"/></g><mask id="mask9_3939_45555" style="mask-type:luminance" maskUnits="userSpaceOnUse" x="0" y="0" width="119" height="60"><path d="M119 0.225586H0V59.1036H119V0.225586Z" fill="white"/></mask><g mask="url(#mask9_3939_45555)"><path d="M62.802 59.0512L62.349 57.7614H59.8662L59.4132 59.0512H58.7686L60.8593 53.3604H61.3733L63.4554 59.0512H62.802ZM61.112 54.2318L60.0404 57.2385H62.1661L61.112 54.2318Z" fill="white"/></g><mask id="mask10_3939_45555" style="mask-type:luminance" maskUnits="userSpaceOnUse" x="0" y="0" width="119" height="60"><path d="M119 0.225586H0V59.1036H119V0.225586Z" fill="white"/></mask><g mask="url(#mask10_3939_45555)"><path d="M67.3315 53.9094V59.0512H66.7217V53.9094H65.0752V53.3604H68.978V53.9094H67.3315Z" fill="white"/></g><mask id="mask11_3939_45555" style="mask-type:luminance" maskUnits="userSpaceOnUse" x="0" y="0" width="119" height="60"><path d="M119 0.225586H0V59.1036H119V0.225586Z" fill="white"/></mask><g mask="url(#mask11_3939_45555)"><path d="M72.4194 53.3604H71.8096V59.0512H72.4194V53.3604Z" fill="white"/></g><mask id="mask12_3939_45555" style="mask-type:luminance" maskUnits="userSpaceOnUse" x="0" y="0" width="119" height="60"><path d="M119 0.225586H0V59.1036H119V0.225586Z" fill="white"/></mask><g mask="url(#mask12_3939_45555)"><path d="M78.9264 58.5105C78.5431 58.894 78.0378 59.1031 77.4716 59.1031C76.9053 59.1031 76.4001 58.894 76.0168 58.5105C75.4853 57.9789 75.4854 57.4124 75.4854 56.2098C75.4854 55.0071 75.4853 54.4406 76.0168 53.909C76.4001 53.5256 76.9053 53.3164 77.4716 53.3164C78.0378 53.3164 78.5431 53.5256 78.9264 53.909C79.4578 54.4406 79.4578 55.0071 79.4578 56.2098C79.4665 57.4124 79.4665 57.9702 78.9264 58.5105ZM78.456 54.2663C78.2121 54.0136 77.8462 53.8567 77.4716 53.8567C77.097 53.8567 76.7398 54.0049 76.4872 54.2663C76.13 54.6324 76.0865 55.0158 76.0865 56.2098C76.0865 57.4037 76.13 57.7872 76.4872 58.1532C76.7311 58.4059 77.097 58.5628 77.4716 58.5628C77.8462 58.5628 78.2034 58.4146 78.456 58.1532C78.8132 57.7872 78.8567 57.4037 78.8567 56.2098C78.8567 55.0158 78.8132 54.6324 78.456 54.2663Z" fill="white"/></g><mask id="mask13_3939_45555" style="mask-type:luminance" maskUnits="userSpaceOnUse" x="0" y="0" width="119" height="60"><path d="M119 0.225586H0V59.1036H119V0.225586Z" fill="white"/></mask><g mask="url(#mask13_3939_45555)"><path d="M86.166 59.0512L83.1431 54.4933V59.0512H82.542V53.3604H83.117L86.1312 57.9095V53.3604H86.741V59.0512H86.166Z" fill="white"/></g><mask id="mask14_3939_45555" style="mask-type:luminance" maskUnits="userSpaceOnUse" x="0" y="0" width="119" height="60"><path d="M119 0.225586H0V59.1036H119V0.225586Z" fill="white"/></mask><g mask="url(#mask14_3939_45555)"><path d="M91.5764 59.1031C90.7226 59.1031 90.1651 58.8852 89.625 58.3536L90.0431 57.9353C90.5136 58.4059 90.9579 58.5628 91.5938 58.5628C92.4214 58.5628 92.9354 58.1706 92.9354 57.5083C92.9354 57.212 92.8483 56.9592 92.6653 56.7937C92.4824 56.6368 92.3343 56.5845 91.9248 56.5235L91.2628 56.4189C90.8185 56.3492 90.4613 56.201 90.2174 55.9832C89.9299 55.7304 89.7818 55.3731 89.7818 54.92C89.7818 53.9526 90.4787 53.3164 91.6025 53.3164C92.3256 53.3164 92.8047 53.4994 93.2926 53.9439L92.9005 54.3361C92.5521 54.0136 92.1775 53.848 91.5764 53.848C90.8185 53.848 90.3742 54.275 90.3742 54.9025C90.3742 55.1814 90.4526 55.408 90.6268 55.5561C90.8011 55.7043 91.0972 55.8176 91.3934 55.8699L92.0207 55.9657C92.5521 56.0442 92.8221 56.1575 93.0573 56.3666C93.371 56.6281 93.5365 57.0202 93.5365 57.4909C93.5365 58.4844 92.7612 59.1031 91.5764 59.1031Z" fill="white"/></g><mask id="mask15_3939_45555" style="mask-type:luminance" maskUnits="userSpaceOnUse" x="0" y="0" width="119" height="60"><path d="M119 0.225586H0V59.1036H119V0.225586Z" fill="white"/></mask><g mask="url(#mask15_3939_45555)"><path d="M13.4245 34.5713V47.1295H11.0201V41.918H2.39568V47.1295H0V34.5713H2.39568V39.7741H11.0201V34.5713H13.4245Z" fill="white"/></g><mask id="mask16_3939_45555" style="mask-type:luminance" maskUnits="userSpaceOnUse" x="0" y="0" width="119" height="60"><path d="M119 0.225586H0V59.1036H119V0.225586Z" fill="white"/></mask><g mask="url(#mask16_3939_45555)"><path d="M30.7869 47.1294H28.1909L27.0322 44.6631H18.9305L17.7718 47.1294H15.1758L20.4811 35.7826C21.03 34.6235 22.0231 34.5625 22.9813 34.5625C23.9396 34.5625 24.9327 34.6235 25.4816 35.7826L30.7869 47.1294ZM26.0652 42.5802L23.4343 36.994C23.3298 36.7761 23.1904 36.7674 22.9726 36.7674C22.7548 36.7674 22.6242 36.7761 22.5109 36.994L19.88 42.5802H26.0652Z" fill="white"/></g><mask id="mask17_3939_45555" style="mask-type:luminance" maskUnits="userSpaceOnUse" x="0" y="0" width="119" height="60"><path d="M119 0.225586H0V59.1036H119V0.225586Z" fill="white"/></mask><g mask="url(#mask17_3939_45555)"><path d="M51.5814 34.5713C51.1719 35.7391 48.2361 45.6479 48.1664 45.8222C47.9225 46.563 47.2778 47.1295 46.398 47.1295H45.3177C44.525 47.1295 43.7584 46.7547 43.4535 45.77L41.1275 37.3078C41.0665 37.0986 41.0578 36.9243 40.84 36.9243C40.6222 36.9243 40.6048 37.0986 40.5525 37.3078L38.2265 45.77C37.9216 46.746 37.155 47.1295 36.3622 47.1295H35.282C34.4021 47.1295 33.7575 46.563 33.5136 45.8222C33.4439 45.6392 30.5168 35.7391 30.0986 34.5713H32.5814C33.1912 36.2881 35.5521 44.4104 35.6131 44.5934C35.6653 44.759 35.7002 44.9333 35.8308 44.9333C35.8744 44.9333 35.9877 44.9333 36.0225 44.9333C36.1532 44.9333 36.1967 44.7503 36.2316 44.6196C36.5539 43.5999 38.5576 36.2184 38.5576 36.2184C38.9235 34.9199 40.0908 34.7282 40.8487 34.7282C41.6066 34.7282 42.774 34.9199 43.1398 36.2184C43.1398 36.2184 45.1435 43.5999 45.4658 44.6196C45.5094 44.759 45.5442 44.9333 45.6749 44.9333C45.7185 44.9333 45.8317 44.9333 45.8666 44.9333C45.9972 44.9333 46.0321 44.759 46.0844 44.5934C46.1453 44.4104 48.5062 36.2881 49.116 34.5713H51.5814Z" fill="white"/></g><mask id="mask18_3939_45555" style="mask-type:luminance" maskUnits="userSpaceOnUse" x="0" y="0" width="119" height="60"><path d="M119 0.225586H0V59.1036H119V0.225586Z" fill="white"/></mask><g mask="url(#mask18_3939_45555)"><path d="M67.5499 47.1295H64.4137L58.8731 41.4561L55.7892 44.1054V47.1295H53.3936V34.5713H55.7892V41.2208L63.5164 34.5713H66.7832L60.5632 39.9571L67.5499 47.1295Z" fill="white"/></g><mask id="mask19_3939_45555" style="mask-type:luminance" maskUnits="userSpaceOnUse" x="0" y="0" width="119" height="60"><path d="M119 0.225586H0V59.1036H119V0.225586Z" fill="white"/></mask><g mask="url(#mask19_3939_45555)"><path d="M77.672 37.8654V39.7827H87.4029V41.9178H77.672V43.8351C77.672 44.8547 77.916 44.9942 78.9352 44.9942H88.0737V47.1293H78.2906C76.3827 47.1293 75.2764 46.5106 75.2764 44.0965V37.5865C75.2764 35.2683 76.2782 34.5537 78.2906 34.5537H88.0737V36.6889H78.9352C77.9508 36.7063 77.672 36.8196 77.672 37.8654Z" fill="white"/></g><mask id="mask20_3939_45555" style="mask-type:luminance" maskUnits="userSpaceOnUse" x="0" y="0" width="119" height="60"><path d="M119 0.225586H0V59.1036H119V0.225586Z" fill="white"/></mask><g mask="url(#mask20_3939_45555)"><path d="M98.3099 41.8395V47.1295H95.9055V41.8395L89.4502 34.5713H92.3773L97.1077 39.87L101.838 34.5713H104.774L98.3099 41.8395Z" fill="white"/></g><mask id="mask21_3939_45555" style="mask-type:luminance" maskUnits="userSpaceOnUse" x="0" y="0" width="119" height="60"><path d="M119 0.225586H0V59.1036H119V0.225586Z" fill="white"/></mask><g mask="url(#mask21_3939_45555)"><path d="M108.599 37.8654V39.7827H118.33V41.9178H108.599V43.8351C108.599 44.8547 108.843 44.9942 109.862 44.9942H119V47.1293H109.217C107.309 47.1293 106.203 46.5106 106.203 44.0965V37.5865C106.203 35.2683 107.205 34.5537 109.217 34.5537H119V36.6889H109.862C108.878 36.7063 108.599 36.8196 108.599 37.8654Z" fill="white"/></g><mask id="mask22_3939_45555" style="mask-type:luminance" maskUnits="userSpaceOnUse" x="0" y="0" width="119" height="60"><path d="M119 0.225586H0V59.1036H119V0.225586Z" fill="white"/></mask><g mask="url(#mask22_3939_45555)"><path d="M72.5328 39.7998H66.7744V41.8914H72.5328V39.7998Z" fill="white"/></g></g><defs><clipPath id="clip0_3939_45555"><rect width="119" height="59" fill="white" transform="translate(0 0.172852)"/></clipPath></defs></svg>