<svg id="Ebene_1" data-name="Ebene 1" xmlns="http://www.w3.org/2000/svg" viewBox="0 0 210 248.82"><defs><style>.cls-1{fill:#312782;}.cls-2{fill:#2d2e82;}.cls-3{fill:#e20613;}.cls-4,.cls-6{fill:#fff;}.cls-5{fill:#2c2f83;}.cls-6{stroke:#fff;stroke-miterlimit:10;stroke-width:0.25px;}.cls-7{fill:none;}</style></defs><path class="cls-1" d="M103.68,108.81a128.24,128.24,0,0,1-13.56-.88,108.16,108.16,0,0,1-17.39-3.66c-2.47-.72-4.87-1.68-7.26-2.63a67.89,67.89,0,0,1-15.28-8.35A43.24,43.24,0,0,1,39.5,82.23,27.33,27.33,0,0,1,35,69.9a25.93,25.93,0,0,1,1.86-12.67,33.26,33.26,0,0,1,6-9.35,41.36,41.36,0,0,1,4.93-4.8,64.59,64.59,0,0,1,12.42-7.95A90.06,90.06,0,0,1,81.52,28a111.58,111.58,0,0,1,16.21-2.18,116.37,116.37,0,0,1,14.1-.07,110.87,110.87,0,0,1,19,2.75,88.46,88.46,0,0,1,20.91,7.66,58.45,58.45,0,0,1,10.63,7,42.7,42.7,0,0,1,7.77,8.55,29.39,29.39,0,0,1,4.26,9.17,23.33,23.33,0,0,1,.7,7.9,29.39,29.39,0,0,1-.9,5.29,27.54,27.54,0,0,1-3.93,8.5A45.32,45.32,0,0,1,159,93.85a69.65,69.65,0,0,1-13.37,7.36A82.73,82.73,0,0,1,130.66,106c-3.09.64-6.19,1.25-9.31,1.77-1.82.3-3.67.42-5.51.58-2,.17-4,.37-6,.44S105.73,108.81,103.68,108.81ZM160,67.06h3a1.11,1.11,0,0,0,.09-.16c.06-1.32,0-1.38-1.3-1.39-.66,0-1.32,0-2-.06,0-.23,0-.34-.06-.45a24.36,24.36,0,0,0-1.2-6.16,11.69,11.69,0,0,0-1.36-2.77,13.57,13.57,0,0,0-7-4.78,24.91,24.91,0,0,0-5.7-.9c-2.72-.27-5.45-.49-8.17-.77-2.12-.22-4.22-.54-6.34-.72a2.16,2.16,0,0,1-1.66-.91,1.51,1.51,0,0,0-2.2-.58c-2.2.89-4.38,1.81-6.57,2.74-1.33.57-2.66,1.17-4,1.75a2.81,2.81,0,0,1-.65.16,2.27,2.27,0,0,1-2.12-.93q-2.16-2.68-4.35-5.34a7,7,0,0,0-.66-.67l-.17.1a6.23,6.23,0,0,0,.17.86,3.85,3.85,0,0,1,.11,2.15c-.18.76-.4,1.51-.61,2.26s-.32.91-1.16.91l-4.78-.06c-.16,0-.32-.06-.59-.11a29.42,29.42,0,0,1,1.66-5.43c.66-1.8,1.27-3.61,1.94-5.53a1.11,1.11,0,0,0-.8.62c-1.42,2-2.84,3.89-4.25,5.85a4.63,4.63,0,0,1-3.66,2.07c-1.68.08-3.36.13-5,.19-2,.08-4.08.12-6.11.23q-4.74.29-9.46.65c-1.62.13-3.23.31-4.84.53a56.45,56.45,0,0,0-7,1.48,3.37,3.37,0,0,0-1.78.83c3.4,1,6.18,2.78,7.58,6.1,1.32,3.15,1.79,6.4.19,9.79,22.75,0,45.35,0,68.06,0-.09-.38-.14-.62-.2-.86a14,14,0,0,1,.1-8.59,10,10,0,0,1,8.07-6.68c4.4-.76,10.23,2.08,12,5.85a12.94,12.94,0,0,1,1.34,7.79c-.1.6-.21,1.19-.33,1.91l1.42-.13ZM147.4,73.45a10,10,0,1,0-10-10A10,10,0,0,0,147.4,73.45Zm-88.3,0a10,10,0,1,0,.11-20,9.81,9.81,0,0,0-9.94,9.31C49.11,69,53.43,73.45,59.1,73.45Z"/><path class="cls-2" d="M108.87,223.61c-2.88,0-5.76,0-8.64,0-1.51,0-3-.12-4.52-.18s-3.3-.13-4.95-.23-3.17-.2-4.75-.33c-2.5-.21-5-.43-7.51-.69-1.64-.18-3.27-.44-4.9-.68-1.32-.2-2.65-.39-4-.65-2.46-.5-4.93-1-7.37-1.58s-4.61-1.12-6.89-1.8a59.15,59.15,0,0,1-12-5,43.67,43.67,0,0,1-6.83-4.56,17.25,17.25,0,0,1-5.21-6.6,10.65,10.65,0,0,1-.7-5.51,14.26,14.26,0,0,1,4.42-8.36,36.41,36.41,0,0,1,6.67-5.19c2-1.22,4-2.46,6.1-3.52a49.2,49.2,0,0,1,7.56-3.19c1.74-.54,3.43-1.2,5.17-1.7,2.58-.74,5.18-1.44,7.79-2s5-1.09,7.56-1.54c2.36-.42,4.74-.73,7.12-1.07,1.58-.24,3.15-.46,4.74-.66s2.88-.35,4.33-.46c2.84-.22,5.69-.39,8.54-.57a28.21,28.21,0,0,1,3.18-.15c1.47.07,2.93-.13,4.4-.14.81,0,1.62.07,2.43.09,2.88.07,5.77.06,8.64.22,2.68.15,5.35.45,8,.72,2.37.23,4.73.47,7.08.8,2.1.29,4.19.69,6.28,1.07,1.41.25,2.81.51,4.2.83,2.07.46,4.13,1,6.2,1.48a79.33,79.33,0,0,1,7.68,2.39,61.21,61.21,0,0,1,9.13,4,43.5,43.5,0,0,1,7.12,4.56,17,17,0,0,1,4.54,6.06,13,13,0,0,1,1.25,4.33,12.91,12.91,0,0,1-2,7.76,21.36,21.36,0,0,1-5,5.47,42.94,42.94,0,0,1-6.54,4.39,48.31,48.31,0,0,1-4.72,2.36c-2.46,1.06-4.94,2.09-7.48,3-2.29.78-4.66,1.37-7,1.95q-4.52,1.11-9.06,2.06c-1.56.33-3.14.49-4.71.73-1.19.18-2.37.39-3.56.54s-2.23.24-3.34.37l-4.25.47c-1.08.11-2.16.2-3.25.29l-3.58.3-.33,0-7.13.21Zm62-28.57v0h1.35a2.67,2.67,0,0,0,1.94-.83c.61-.63.59-1.13-.22-1.5a4.15,4.15,0,0,1-1.74-1.63,3.89,3.89,0,0,0-1.77-1.61,19.53,19.53,0,0,0-2.44-.84c-1.84-.43-3.7-.81-5.56-1.16-2.85-.55-5.71-1.06-8.57-1.58a11.21,11.21,0,0,1-4.47-1.59c-1.05-.73-2.18-1.36-3.28-2a7.39,7.39,0,0,0-2.64-1.05l-3.63-.59a66.52,66.52,0,0,0-8.33-.8,16,16,0,0,0-6.12,1.19c-.49.18-1,.43-1.45.65a9.73,9.73,0,0,1-3,.83c-1.17.14-2.31.42-3.47.58-.83.12-1.66.17-2.5.24-1.6.12-3.22.6-4.77-.23l-.09,0c-.3-.08-.51,0-.54.34a2.62,2.62,0,0,0,0,.74c0,.36.15.72.17,1.08,0,1,0,1.95,0,2.92.09,1.18.25,2.39,1.33,3.12a7.22,7.22,0,0,0,2,.92c1.08.29,2.12.54,2.44,1.81a1.21,1.21,0,0,0,.1.14,7.24,7.24,0,0,0,11.85-.06,1.11,1.11,0,0,1,1.11-.57c.78.06,1.57.08,2.35.11,1.28,0,2.57.07,3.86.13,1.5.07,3,.17,4.5.24,1,0,2.07.05,3.1.1,1.48.08,3,.21,4.43.26,2,.07,4.08.07,6.12.15,2.51.09,5,.24,7.54.36a.91.91,0,0,1,.73.3,5.68,5.68,0,0,0,2.74,1.68,3.55,3.55,0,0,0,1.07.15,3.7,3.7,0,0,0,3.19-1.71.68.68,0,0,1,.69-.36C169.63,195,170.27,195,170.91,195Zm-70.45-18.63c-.24-.42-.55-.34-.81-.32-1.11.1-2.22.21-3.32.35a6.24,6.24,0,0,0-1.37.34.81.81,0,0,0-.63.72c0,.43.31.55.64.65a.54.54,0,0,1,.41.77c-.06.18-.09.38-.17.56-.72,1.51-1.44,3-2.19,4.53a.71.71,0,0,1-1.18.19,2,2,0,0,1-.54-.73,2,2,0,0,0-1.21-1.19,9.8,9.8,0,0,0-3.2-.6c-1-.06-1.51.65-1.28,1.65s.18.94-.74,1.13l-.33.06c-1.47.22-1.49.23-1.71,1.67a2.93,2.93,0,0,0-.07.41c0,.89-.76,1-1.49.81s-.69-.23-.45-1.11a1,1,0,0,0,.05-.16c.16-.62,0-.84-.65-.78a1.4,1.4,0,0,0-.61.24c-.27.18-.51.43-.78.63-.61.45-.72.48-1.33,0a2.64,2.64,0,0,0-2.09-.39,1.9,1.9,0,0,0-1.41,1.8,2.16,2.16,0,0,1-.16.55,3.27,3.27,0,0,0-.3.86.7.7,0,0,1-.68.71,3.75,3.75,0,0,1-2.61-.31,1.66,1.66,0,0,0-1.36-.08c-1.12.36-2.25.68-3.4.94-4.36,1-8.77,1.71-13.18,2.42-1.7.27-3.43.44-5.13.73-.48.08-.71,0-.92-.41-1-2.08-2.75-2.47-4.7-2a4.41,4.41,0,0,0-2.85,2.4,3.2,3.2,0,0,0,.37,3.54,3.57,3.57,0,0,0,2.83,1.24,4.32,4.32,0,0,0,3-1.09,3.45,3.45,0,0,1,2.26-1c1.93,0,3.86-.08,5.78-.12l7.72-.16c3.21-.06,6.43-.11,9.65-.19,1.59,0,3.18-.14,4.77-.19l9.88-.28a1.54,1.54,0,0,1,1.16.37,8.43,8.43,0,0,0,1.25,1,7.42,7.42,0,0,0,8.47-.69,6.3,6.3,0,0,0,2.45-4.69,5.84,5.84,0,0,0-2.7-5.27c-.58-.41-.64-.52-.43-1.17.61-1.89,1.25-3.77,1.85-5.66a2.61,2.61,0,0,1,2-2,3.22,3.22,0,0,0,.78-.3C100,176.7,100.23,176.54,100.46,176.41Zm4.45-5h-.25c0,.24-.08.48-.1.72,0,.67-.07,1.34-.11,2-.1,2-.21,4-.3,5.94-.14,3.15-.26,6.31-.38,9.46-.09,2.26-.15,4.53-.23,6.79,0,.61-.07,1.22-.11,1.83a.52.52,0,0,1-.6.54h-1.76l-8.81.16-13,.23c-1.93,0-3.86.06-5.8.06s-4.19-.08-6.29-.07-4.19.09-6.29.12l-9.4.07-12.18.08a4.87,4.87,0,0,0-1.08.07.61.61,0,0,0-.37.46c0,.15.25.31.42.43s.21,0,.33,0c1.42,0,2.85,0,4.27,0l9.48-.16c1.06,0,2.12,0,3.18,0h3.68l13.52-.06,16.61-.18c1.6,0,3.19,0,4.78,0l7.9,0c1.61,0,3.23,0,4.85,0,1.79,0,3.58-.11,5.37-.12,4.28,0,8.56,0,12.84,0,3.8,0,7.6-.1,11.41-.15.75,0,1.51,0,2.26,0,1.54,0,3.07-.07,4.61-.08,1.85,0,3.69,0,5.53,0,2.21,0,4.41-.13,6.61-.17,1.65,0,3.3,0,4.95,0,3,0,5.93,0,8.9-.07,1.45,0,2.9-.1,4.35-.15a.44.44,0,0,0,.47-.48.47.47,0,0,0-.4-.54,2.19,2.19,0,0,0-.51,0l-13.93.11-6.47,0c-2.18,0-4.36,0-6.54,0-1.87,0-3.74.11-5.61.13-2.74,0-5.49,0-8.23,0l-8.73.15c-3.75.05-7.5.08-11.25.12-2,0-3.91.05-5.87.05-.78,0-.92-.15-.95-.94-.05-1.48-.1-3-.14-4.43-.05-2-.09-4.08-.14-6.12-.08-3-.18-6-.25-9,0-1.84,0-3.68-.07-5.52A11.22,11.22,0,0,0,104.91,171.38Z"/><path class="cls-3" d="M152.35,114.73l-4-10.13.87-.4a75.66,75.66,0,0,0,12.68-6.7,48.55,48.55,0,0,0,10.52-9c3.22-3.72,6-7.74,7.45-12.55a31.89,31.89,0,0,0,1.42-7.83,27.23,27.23,0,0,0-2.18-11.78,48.61,48.61,0,0,0-2.94-5.75,27.53,27.53,0,0,0-2.42-3.21c-.58-.72-1.21-1.4-1.81-2.1a20.37,20.37,0,0,0-2.84-2.73c-1.08-.83-2.07-1.78-3.13-2.72,2.05-3.55,4.07-7,6.1-10.54.26.15.44.23.6.33a66.34,66.34,0,0,1,11,8.8,46.89,46.89,0,0,1,6.19,7.61,40,40,0,0,1,4.2,8.11,37.34,37.34,0,0,1,2.34,12.65,36.78,36.78,0,0,1-3.24,14.9,45,45,0,0,1-7.11,11,69.27,69.27,0,0,1-16.3,13.64A101.27,101.27,0,0,1,153,114.57C152.81,114.63,152.64,114.65,152.35,114.73Zm7.94-12.62a3.47,3.47,0,0,0-3.52,3.51,3.53,3.53,0,0,0,7,0A3.44,3.44,0,0,0,160.29,102.11Z"/><path class="cls-3" d="M59.56,103.75l-5,9.61c-.85-.33-1.61-.58-2.34-.9a122,122,0,0,1-12.54-6.63,63.67,63.67,0,0,1-12.55-9.78,52,52,0,0,1-5.34-6c-.9-1.24-1.7-2.56-2.52-3.86A38.39,38.39,0,0,1,15.06,77a31.24,31.24,0,0,1-1.37-12.85,32.72,32.72,0,0,1,.82-5.56c.35-1.29.74-2.58,1.21-3.84a45,45,0,0,1,9.66-15.21,80.35,80.35,0,0,1,10.05-8.64l.27-.17c.5.43,6,8.6,6.88,10.18-.69.67-1.39,1.35-2.1,2a43.24,43.24,0,0,0-7.91,9.85,29.44,29.44,0,0,0-3.92,12.63,27.69,27.69,0,0,0,2.47,13.41,38.4,38.4,0,0,0,8.57,11.93A81,81,0,0,0,47.18,97c.74.55,1.57,1,2.35,1.46a66.3,66.3,0,0,0,9.65,5.09Z"/><path class="cls-3" d="M44.64,218.44c-.31.51-.54.95-.83,1.36l-4.7,6.63-.2.27c-.49.59-.69.65-1.37.31-1.15-.57-2.32-1.11-3.42-1.77-2.1-1.27-4.19-2.58-6.23-4a42.42,42.42,0,0,1-5.77-4.86,37.23,37.23,0,0,1-4.44-5.11,21.56,21.56,0,0,1-3.15-6.17,8.71,8.71,0,0,1-.48-3c0-.58-.09-1.16-.12-1.74a20.21,20.21,0,0,1,.64-6.8A13.9,13.9,0,0,1,16,190c.66-1,1.15-2.15,1.72-3.23a22.58,22.58,0,0,1,2.94-4.06c.78-.91,1.55-1.85,2.41-2.67,1.36-1.29,2.79-2.49,4.2-3.71a5.17,5.17,0,0,1,.9-.53c.83.63,4.06,5.43,5,7.41l-.86.93c-1.21,1.32-2.48,2.59-3.59,4a14.25,14.25,0,0,0-2.05,3.73,14.82,14.82,0,0,0-1,7.23A13.49,13.49,0,0,0,29,207a42.35,42.35,0,0,0,3.75,3.71,48.41,48.41,0,0,0,4.85,3.57c1.73,1.13,3.58,2.06,5.37,3.1C43.55,217.68,44.06,218.06,44.64,218.44Z"/><path class="cls-3" d="M163.85,218.31c.88-.48,1.66-.91,2.44-1.32,1.42-.73,2.84-1.44,4.25-2.19a51.09,51.09,0,0,0,6.14-3.92,20.52,20.52,0,0,0,4.65-4.92,23.06,23.06,0,0,0,2.54-4.62,19.69,19.69,0,0,0,1.17-5,17.48,17.48,0,0,0-.36-5.16,13,13,0,0,0-3-6.1c-.7-.83-1.46-1.61-2.22-2.4-.53-.56-.57-.61-.13-1.19,1.41-1.84,2.84-3.67,4.27-5.5a9.3,9.3,0,0,1,.84-.81,12.56,12.56,0,0,1,2.82,2.06c.71.62,1.37,1.31,2,2a29.67,29.67,0,0,1,5,7,26.5,26.5,0,0,1,2.39,6.51,4.09,4.09,0,0,1,.12,1.16,36,36,0,0,1-.08,4.53,29.58,29.58,0,0,1-1.08,4.72A30.41,30.41,0,0,1,190,213.41a29.44,29.44,0,0,1-4.24,4.4,54.06,54.06,0,0,1-5.1,3.68c-2.31,1.47-4.69,2.82-7.09,4.14-1.37.75-2.83,1.35-4.26,2-.77.33-1,.24-1.32-.5q-1.63-3.45-3.24-6.9C164.43,219.63,164.17,219,163.85,218.31Zm8.73-1.7a3.48,3.48,0,0,0-3.55,3.48,3.53,3.53,0,0,0,7.06,0A3.44,3.44,0,0,0,172.58,216.61Z"/><path class="cls-3" d="M159.26,226a.76.76,0,0,0,.11-1c-.49-1.25-1-2.49-1.48-3.74-.27-.68-.22-.78.47-1.06l.09,0c1.29-.5,1.49-.44,2,.83,1.14,2.65,2.26,5.3,3.39,8,.08.21.14.42.23.63a.45.45,0,0,1-.26.68,20.55,20.55,0,0,1-2.15.67c-.45.11-.78-.26-1.09-.53l-3.16-2.76c-.4-.36-.79-.72-1.19-1.06-.21-.17-.45-.3-.7-.48a1.07,1.07,0,0,0,0,1.1c.51,1.24,1,2.48,1.52,3.73s.46,1.38-.85,1.72c-.9.23-1.06.16-1.41-.68l-3.3-8.08-.12-.31c-.33-1-.26-1.13.7-1.47.29-.1.58-.22.87-.31a1.68,1.68,0,0,1,1.78.34c1.22,1.12,2.49,2.18,3.74,3.26C158.74,225.62,159,225.8,159.26,226Z"/><path class="cls-3" d="M145.7,235.51a5.86,5.86,0,0,1-4.57-1.7,5.76,5.76,0,0,1-1.8-4.29c.06-3.24,1.83-5.24,5.08-5.55a6.3,6.3,0,0,1,6.73,5.18A5.13,5.13,0,0,1,145.7,235.51Zm-3.59-6.3c0,.23,0,.57.11.9.33,1.76,1.28,3.25,3.55,3.34a2.75,2.75,0,0,0,2.71-2.45,5.88,5.88,0,0,0-.64-2.83,3.38,3.38,0,0,0-2.73-2.09,2.36,2.36,0,0,0-2.57,1.18A4.12,4.12,0,0,0,142.11,229.21Z"/><path class="cls-3" d="M78.94,233.24a6.28,6.28,0,0,1,1.9-4.4,5.49,5.49,0,0,1,3.46-1.71,5.74,5.74,0,0,1,5.07,1.64,4.79,4.79,0,0,1,1.36,4,7.23,7.23,0,0,1-1.86,4.12,5.54,5.54,0,0,1-2.75,1.68,6.07,6.07,0,0,1-4.32-.29A5.06,5.06,0,0,1,78.94,233.24Zm2.79.21v.25a2.83,2.83,0,0,0,5.07,1.85A5,5,0,0,0,88,231.88a2.68,2.68,0,0,0-1.85-2.56,2.87,2.87,0,0,0-3.26.87A5.21,5.21,0,0,0,81.73,233.45Z"/><path class="cls-3" d="M72,237.38a6.36,6.36,0,0,1-5.27-2.4c-.52-.63-.47-.9.22-1.33.33-.2.7-.34,1-.54a.53.53,0,0,1,.73.19c.16.19.3.41.45.61a3.22,3.22,0,0,0,2.31,1.22,2.2,2.2,0,0,0,1.2-.24,1,1,0,0,0,.34-1.66,4.57,4.57,0,0,0-1.73-1.15c-.54-.29-1.09-.56-1.66-.81a2.56,2.56,0,0,1-.68-4.2,4.86,4.86,0,0,1,4.14-1.35,6.37,6.37,0,0,1,3.42,1.66c.55.48.48,1-.14,1.32l-.3.16c-1,.49-1,.5-1.72-.26a3,3,0,0,0-2.53-.85.94.94,0,0,0-.36,1.82c.57.29,1.19.49,1.77.76a12.3,12.3,0,0,1,1.48.78,3,3,0,0,1,.35,5A4.33,4.33,0,0,1,72,237.38Z"/><path class="cls-3" d="M122.47,238.36a3,3,0,0,1-2.17.22,1.14,1.14,0,0,1-.66-.68,1.57,1.57,0,0,0-1.9-1.1c-.8.08-1.61.13-2.42.16a1,1,0,0,0-.95.67c-.69,1.42-1,1.54-2.73,1.2-.2-.51.07-1,.21-1.43.41-1.33.88-2.65,1.32-4,.51-1.51,1-3,1.51-4.53.22-.71.52-1.23,1.36-1.19a1.91,1.91,0,0,0,.33-.06c1.16-.11,1.46.06,1.94,1.14,1.22,2.7,2.44,5.4,3.64,8.11C122.15,237.35,122.28,237.83,122.47,238.36Zm-5.92-6.84a5.91,5.91,0,0,0-1,3.13,3.94,3.94,0,0,0,2.28-.12A5.92,5.92,0,0,0,116.55,231.52Z"/><path class="cls-3" d="M65.48,226.31a12.87,12.87,0,0,1-1.31.73.91.91,0,0,1-1.16-.37,3,3,0,0,0-2.62-1.23c-.74.05-1.22.65-1,1.24a1.8,1.8,0,0,0,.69.68c.75.43,1.55.78,2.28,1.25a5,5,0,0,1,1.19,1.14,2.92,2.92,0,0,1-.59,4.11A4.91,4.91,0,0,1,59.08,235a6.07,6.07,0,0,1-3.85-2,6.92,6.92,0,0,1-.74-1.11c-.23-.37-.09-.64.28-.81s.76-.37,1.15-.51.67-.14.95.36a3.51,3.51,0,0,0,1.58,1.56,2.52,2.52,0,0,0,2,.15c.92-.36,1.12-1.05.42-1.74a12.9,12.9,0,0,0-1.65-1.27c-.44-.31-.91-.56-1.36-.84a2.59,2.59,0,0,1-1.1-1.34A3,3,0,0,1,58,224.3a5.3,5.3,0,0,1,6.9,1A5.67,5.67,0,0,1,65.48,226.31Z"/><path class="cls-3" d="M155.25,170.05a5.4,5.4,0,0,1-2.09-.49c-.48-.22-.56-.74-.72-1.18-.26-.7-.48-1.42-.73-2.13a1.09,1.09,0,0,0-.25-.53,2.23,2.23,0,0,0-.92-.49c-.34,0-.47.33-.58.62-.22.6-.44,1.21-.67,1.81s-.37.68-1,.55c-.25-.05-.49-.12-.73-.19-.8-.24-.92-.47-.66-1.29.38-1.22.78-2.45,1.18-3.67.32-1,.66-2,1-3s.51-1.06,1.46-.83c.76.19,1.52.35,2.29.5A9.05,9.05,0,0,1,156,161a2.87,2.87,0,0,1,1.13,1.42,2.4,2.4,0,0,1-1.15,2.86,4.46,4.46,0,0,1-1.14.49.61.61,0,0,0-.49.68,4.72,4.72,0,0,0,.15.82c.18.61.39,1.22.56,1.84A7,7,0,0,1,155.25,170.05ZM151,163.18a5.53,5.53,0,0,0,2.43.74c.58,0,.91-.21,1.05-.63A1,1,0,0,0,154,162a13.83,13.83,0,0,0-1.88-.63.57.57,0,0,0-.73.41C151.23,162.26,151.14,162.71,151,163.18Z"/><path class="cls-3" d="M79.55,161.22c.09,1.05.16,2.1.27,3.15.15,1.55.18,1.61-1.49,1.72a4.46,4.46,0,0,1-.66-.06c-.09-.48-.2-1-.26-1.45q-.31-2.54-.6-5.07c-.06-.5-.06-1-.08-1.51a.61.61,0,0,1,.56-.7,17.94,17.94,0,0,1,1.9-.24,1.29,1.29,0,0,1,1,.64c.69.91,1.38,1.82,2.1,2.72a5.26,5.26,0,0,0,.74.6c0-.76,0-1.3,0-1.85s-.16-1.21-.21-1.82.13-.87.73-1c1.25-.31,1.48-.19,1.66,1.08.29,2.05.51,4.1.76,6.15,0,.25.07.5.11.75a.56.56,0,0,1-.5.73c-.54.11-1.09.21-1.64.3a1,1,0,0,1-1-.46c-.68-.86-1.35-1.72-2-2.57-.34-.42-.72-.81-1.08-1.22Z"/><path class="cls-3" d="M42.3,229.05a3.37,3.37,0,0,1,1.08-1.23c1.29-1.2,2.58-2.4,3.88-3.58s2.34-2.08,3.49-3.14a1,1,0,0,1,1.07-.23c.21.07.43.12.64.2.93.35,1.13.64,1,1.63-.3,1.67-.47,3.37-.72,5.05-.2,1.41-.41,2.82-.66,4.22-.12.75-.22.77-.95.54l-.32-.11c-1.1-.4-1.1-.4-1.05-1.59,0-.71,0-.82-.67-1.07s-1.57-.58-2.33-.92a1.44,1.44,0,0,0-1.63.26C44,230,43.51,230,42.3,229.05Zm8.17-4.66a9.53,9.53,0,0,0-2.24,1.85c-.4.42-.33.76.21,1a9.05,9.05,0,0,0,1.4.37A5.53,5.53,0,0,0,50.47,224.39Z"/><path class="cls-3" d="M31.54,173.41a4.66,4.66,0,0,1,2.19-1.32,1.59,1.59,0,0,1,1,.14c1.09.48,2.17,1,3.25,1.54.3.14.62.24.91.36.35-.34.13-.6,0-.86-.43-.72-.88-1.43-1.3-2.15-.56-.93-.5-1.11.44-1.62.14-.08.3-.14.44-.22a.64.64,0,0,1,.94.24c.29.44.61.86.89,1.31.85,1.36,1.68,2.71,2.5,4.08s.68,1.3-.55,2.1a2.4,2.4,0,0,1-2.85,0c-.91-.53-1.91-.92-2.87-1.36a2.74,2.74,0,0,0-.53-.13c0,.21-.05.38,0,.5.34.67.71,1.33,1.07,2,.16.29.35.57.52.86a.56.56,0,0,1-.2.86l-.14.09c-1.05.75-1.38.72-2.06-.35-1.15-1.82-2.27-3.66-3.4-5.49A6.11,6.11,0,0,1,31.54,173.41Z"/><path class="cls-3" d="M172.08,167a14.66,14.66,0,0,1,3.42,1.74,7.48,7.48,0,0,1,2.05,1.84,4,4,0,0,1-.16,5.24,5.81,5.81,0,0,1-1.85,1.25,6.08,6.08,0,0,1-4.89-.06,23,23,0,0,1-2.78-1.35c-.69-.36-.77-.58-.38-1.27.84-1.51,1.74-3,2.63-4.48.41-.69.84-1.38,1.28-2.06C171.58,167.53,171.82,167.29,172.08,167Zm.83,8.73a3,3,0,0,0,3-2.81,2.93,2.93,0,0,0-1.79-2.79c-.76-.42-.93-.41-1.37.28-.77,1.2-1.5,2.43-2.21,3.65-.29.51-.19.8.34,1.11A4,4,0,0,0,172.91,175.69Z"/><path class="cls-3" d="M163.26,173.11a6,6,0,0,1-3.61-1.12,4.42,4.42,0,0,1-1.64-5.25,4.88,4.88,0,0,1,3.3-3.19,5.33,5.33,0,0,1,4.05.26,8.26,8.26,0,0,1,1.8,1.19,4.33,4.33,0,0,1,1.47,3.17,4,4,0,0,1-.46,1.93A5.17,5.17,0,0,1,163.26,173.11ZM166,167.8c0-.89-.07-.85-.64-1.65a2.67,2.67,0,0,0-4.25.13,6.69,6.69,0,0,0-.85,1.89,2.53,2.53,0,0,0,1.1,2.71A2.36,2.36,0,0,0,164,171,3.52,3.52,0,0,0,166,167.8Z"/><path class="cls-3" d="M102.91,236.56a4.24,4.24,0,0,1-2,2.05,5.62,5.62,0,0,1-7-1.39,5,5,0,0,1-.94-2.3,7,7,0,0,1,.93-4.84,5.46,5.46,0,0,1,6.57-2.31,5.06,5.06,0,0,1,2.46,2.2c.35.59.28.73-.32,1l-.3.15c-.94.44-1.09.41-1.64-.43a2.44,2.44,0,0,0-3.56-.87,3.17,3.17,0,0,0-1.42,2.29,12.08,12.08,0,0,0-.1,2.25,2.76,2.76,0,0,0,1.08,2,2.69,2.69,0,0,0,3.4.13c.13-.1.25-.21.38-.33a1.36,1.36,0,0,1,2.21,0A3,3,0,0,1,102.91,236.56Z"/><path class="cls-3" d="M127.53,164.88a5.59,5.59,0,0,1-3.9-1.22,4.73,4.73,0,0,1,.28-7.23,5.57,5.57,0,0,1,7.37.29,4.07,4.07,0,0,1,.94,4.79A4.93,4.93,0,0,1,127.53,164.88Zm2.45-5.06a2.56,2.56,0,0,0-1.74-2.67,2.48,2.48,0,0,0-2.89.91,3.56,3.56,0,0,0-.51,3.42,2.5,2.5,0,0,0,4,1.09A3.79,3.79,0,0,0,130,159.82Z"/><path class="cls-3" d="M65.63,163.46a5.06,5.06,0,0,1,4.53-5.15,5.7,5.7,0,0,1,3,.33,4.45,4.45,0,0,1,1.69,7.05,6.1,6.1,0,0,1-6.73,1.65A4,4,0,0,1,65.63,163.46Zm5.06,2.42a2.35,2.35,0,0,0,2.62-2.14,3.53,3.53,0,0,0-.51-2.48A2.49,2.49,0,0,0,70.47,160a2.18,2.18,0,0,0-2,1.49,4.35,4.35,0,0,0-.27,1.88C68.34,164.86,69.3,166.05,70.69,165.88Z"/><path class="cls-3" d="M112.53,154.77h1.53c.42,0,.61.2.61.62s0,1.12,0,1.68.09.7.67.73c.84,0,1.68,0,2.51.07a.57.57,0,0,0,.62-.55c.08-.58.15-1.16.26-1.73s.19-.73.86-.74h.17c1.26,0,1.34.07,1.28,1.33-.07,1.51-.22,3-.33,4.51,0,.56-.07,1.11-.1,1.67,0,.22,0,.45-.06.67-.15.86-.16.86-1,.86h-.08c-1.48.07-1.47.07-1.33-1.44,0-.59.1-1.17.12-1.76,0-.79-.19-1-1-1.06l-1.84-.11c-.79,0-1,.14-1.1.92s-.17,1.66-.3,2.49c-.1.68-.19.72-.88.73-1.29,0-1.51-.14-1.41-1.41.18-2.34.43-4.67.66-7A3.93,3.93,0,0,1,112.53,154.77Z"/><path class="cls-3" d="M48,36.82l-1.27.77-5.83-9.4,1.8-1.14,7.14,4.75c0-.66-.5-.94-.71-1.37s-.55-.9-.83-1.36l-.8-1.28-.84-1.35c-.26-.43-.51-.86-.8-1.33l1.26-.79,5.81,9.37-.37.3-1,.63-7.74-5.1c-.22.35,0,.52.16.7,1.23,2,2.47,4,3.71,6Z"/><path class="cls-3" d="M139.74,118.75l-1.43.42c-.95-3.62-1.88-7.18-2.84-10.82l1.7-.45c.42-.12.6.19.81.44l4.22,5.13.72.86.17-.1c-.64-2.42-1.28-4.84-2-7.35l1.38-.44c1,3.62,1.93,7.17,2.87,10.78l-1.55.42-6-7.06c-.08,0-.11,0-.13,0a.08.08,0,0,0,0,.07.86.86,0,0,0,0,.16C138.37,113.45,139,116.05,139.74,118.75Z"/><path class="cls-3" d="M81.26,23.83l-1.37.29c-.51-1.8-.65-3.64-1-5.42s-.62-3.57-.93-5.4a4.3,4.3,0,0,1,1.85-.39c.18,0,.43.24.56.42.93,1.33,1.83,2.68,2.75,4,.52.75,1,1.5,1.65,2.22a18.08,18.08,0,0,0-.47-3.67c-.18-1.2-.39-2.41-.6-3.71L85.14,12c.63,3.63,1.25,7.19,1.88,10.86a9.81,9.81,0,0,1-1.32.25.73.73,0,0,1-.53-.29c-.48-.62-.93-1.27-1.37-1.91-1-1.37-1.91-2.76-2.86-4.13A6.89,6.89,0,0,0,80,15.57C80.35,18.33,80.78,21.05,81.26,23.83Z"/><path class="cls-3" d="M146.22,23.56c.07.86.15,1.71.21,2.57s.09,1.72.15,2.73l-1.8-.58c-.05-.93-.1-1.82-.14-2.71,0-.28,0-.56,0-.84-.08-1.62.13-1.41-1.71-1.91l-1.5,4.29-1.7-.54c1.19-3.52,2.36-7,3.57-10.52,1.41.51,2.75.92,4,1.47A2.5,2.5,0,0,1,149,20.1a3.37,3.37,0,0,1-1.89,3.13C146.84,23.34,146.57,23.43,146.22,23.56Zm-2.82-2.15c.52.18.9.33,1.3.44A1.81,1.81,0,0,0,147.2,20a1.36,1.36,0,0,0-.71-1.32,4.88,4.88,0,0,0-2-.64Z"/><path class="cls-3" d="M155.9,33.16l5.68-9.57a16.13,16.13,0,0,1,3.77,2.58,3.59,3.59,0,0,1,.93,2.19c.22,2.62-1.88,6-4.55,6.76a3.06,3.06,0,0,1-2.21,0C158.32,34.49,157.16,33.83,155.9,33.16Zm6.44-7.3-4.07,6.85c1.66,1.42,3,1.13,4.3-.11a7.6,7.6,0,0,0,1.73-2.83A2.84,2.84,0,0,0,162.34,25.86Z"/><path class="cls-3" d="M157.83,23.76a10.24,10.24,0,0,1-3,6.65A3.23,3.23,0,0,1,151,31a3.53,3.53,0,0,1-2.26-3.17,4.2,4.2,0,0,1,.06-1,10.68,10.68,0,0,1,2-4.68,7.4,7.4,0,0,1,1.55-1.51,3.65,3.65,0,0,1,5.19,1.73A11.31,11.31,0,0,1,157.83,23.76Zm-1.74-.15A1.85,1.85,0,0,0,155,21.84a1.66,1.66,0,0,0-2,.5,3.92,3.92,0,0,0-.34.37,11.49,11.49,0,0,0-2,4.38,4.58,4.58,0,0,0-.12,1.16,1.6,1.6,0,0,0,1.61,1.5,1.72,1.72,0,0,0,1.47-.64,10.17,10.17,0,0,0,1.84-3.27C155.7,25.11,155.87,24.36,156.09,23.61Z"/><path class="cls-3" d="M135.21,115.63a5.91,5.91,0,0,1-.67,3.53,3.67,3.67,0,0,1-5.84.09,9.76,9.76,0,0,1-1.58-4.7,8,8,0,0,1,.07-2.49,3.7,3.7,0,0,1,4.7-2.85,3,3,0,0,1,1.91,1.52A10.38,10.38,0,0,1,135.21,115.63Zm-1.68,1a26.79,26.79,0,0,0-.45-2.73,13.23,13.23,0,0,0-.94-2.5,1.53,1.53,0,0,0-1.94-.73,1.69,1.69,0,0,0-1.22,1.71,11.77,11.77,0,0,0,.68,4.78,5.77,5.77,0,0,0,.6,1.19,1.6,1.6,0,0,0,1.59.74,1.56,1.56,0,0,0,1.4-1.16C133.37,117.55,133.44,117.1,133.53,116.67Z"/><path class="cls-3" d="M90.58,122.43a3.65,3.65,0,0,1-3.63-3.2,11,11,0,0,1,.45-5.76,5.58,5.58,0,0,1,.56-1.12,3.65,3.65,0,0,1,5.67-.51,4.65,4.65,0,0,1,1,2,10.26,10.26,0,0,1-.47,5.85,4.12,4.12,0,0,1-2,2.36A7.59,7.59,0,0,1,90.58,122.43ZM93,115.37a20.16,20.16,0,0,0-.45-2.12,1.47,1.47,0,0,0-1.42-1,1.62,1.62,0,0,0-1.69,1.11,11,11,0,0,0-.78,4.68,7,7,0,0,0,.25,1.57,1.57,1.57,0,0,0,1.35,1.21,1.51,1.51,0,0,0,1.66-.74,4.48,4.48,0,0,0,.59-1.37C92.72,117.64,92.83,116.56,93,115.37Z"/><path class="cls-3" d="M77.33,21.4A12.47,12.47,0,0,1,77,23.3a3.43,3.43,0,0,1-3.07,2.37,3.26,3.26,0,0,1-3.32-1.51,9.82,9.82,0,0,1-1.77-6.09,3.64,3.64,0,0,1,4.59-3.66,3.3,3.3,0,0,1,2,1.33,7.31,7.31,0,0,1,1.36,3C76.94,19.61,77.15,20.54,77.33,21.4Zm-1.89.22a11.54,11.54,0,0,0-1.58-5.08,1.65,1.65,0,0,0-1.74-.69,1.74,1.74,0,0,0-1.48,2,20.14,20.14,0,0,0,.59,3.37,7.41,7.41,0,0,0,1.15,2.3A1.64,1.64,0,0,0,75.26,23,8,8,0,0,0,75.44,21.62Z"/><path class="cls-3" d="M119,18.49a10.67,10.67,0,0,1,1.08-4.86,3.38,3.38,0,0,1,2.4-1.92c1.93-.3,3.83.43,4.36,2.55a9,9,0,0,1,.17,3.15,12.32,12.32,0,0,1-.75,3.24,3.7,3.7,0,0,1-7.13-.74A11.38,11.38,0,0,1,119,18.49Zm1.79.2c.09.57.15,1,.22,1.4a1.67,1.67,0,0,0,1.41,1.43,1.55,1.55,0,0,0,1.76-.82,7.73,7.73,0,0,0,.65-1.54,11.64,11.64,0,0,0,.44-3.22,5.74,5.74,0,0,0-.2-1.48,1.62,1.62,0,0,0-1.59-1.38,1.74,1.74,0,0,0-1.69,1C121,15.59,121.06,17.24,120.81,18.69Z"/><path class="cls-3" d="M116.82,22.13,115.05,22c.08-1.65.16-3.25.24-4.94l-3.21-.22-.38,4.94L110,21.69c.13-3.73.47-7.36.67-11.09l.91.08.82.12a41.58,41.58,0,0,1-.23,4.45,24.69,24.69,0,0,0,3.24.3c.24-1.5.19-3,.43-4.45h1.73C117.29,14.79,117.06,18.39,116.82,22.13Z"/><path class="cls-3" d="M53.48,171.73a2.68,2.68,0,0,1-1.61.86,1.21,1.21,0,0,1-.84-.27,1.42,1.42,0,0,0-1.57-.19c-.74.32-1.49.64-2.22,1a.79.79,0,0,0-.57.76c0,1-.57,1.32-1.34,1.56-.21.06-.43.1-.77.18a16,16,0,0,1-.2-1.74c0-1.64.07-3.28.1-4.92q0-.84,0-1.68a1.11,1.11,0,0,1,.64-1.08l.83-.41a1.18,1.18,0,0,1,1.46.2l2.47,2.27c1.06,1,2.13,2,3.18,3A6,6,0,0,1,53.48,171.73Zm-6.67-.82a1.26,1.26,0,0,0,1.44-.24.37.37,0,0,0,0-.64,9.26,9.26,0,0,0-1-.88c-.28-.21-.56-.05-.56.31S46.78,170.44,46.81,170.91Z"/><path class="cls-3" d="M87.21,164.5c.15-.57.3-1.19.5-1.79.69-2.1,1.41-4.18,2.08-6.28a1.32,1.32,0,0,1,1.23-1,2.09,2.09,0,0,0,.25,0,1.44,1.44,0,0,1,1.67.9c1.18,2.35,2.42,4.66,3.64,7a2.94,2.94,0,0,1,.1.34,2.72,2.72,0,0,1-1.86.31,1.16,1.16,0,0,1-.71-.62,1.11,1.11,0,0,0-1.38-.63c-.69.12-1.38.19-2.08.26a1,1,0,0,0-1,.81,1.06,1.06,0,0,1-1.21.9C88,164.7,87.58,165,87.21,164.5Zm4.44-5.76a2.39,2.39,0,0,0-.77,2.39c.57,0,1.21.28,1.73-.45Z"/><path class="cls-3" d="M129.12,237.85l-1.74.18a.6.6,0,0,1-.75-.59c-.1-1-.22-1.94-.33-2.91-.17-1.52-.35-3.05-.54-4.57a2.82,2.82,0,0,0-.2-.6c-.66-.4-1.33-.15-2-.14-.36,0-.82.1-.95-.31a3.47,3.47,0,0,1-.07-1.47c0-.14.51-.28.79-.31,1.28-.15,2.56-.27,3.83-.37.92-.08,1.84-.11,2.76-.17s1.52.53,1.3,1.5c-.09.41-.42.49-.76.54s-.89.07-1.33.15c-.64.13-.68.2-.65.84a44.54,44.54,0,0,0,.56,5.15A9,9,0,0,1,129.12,237.85Z"/><path class="cls-3" d="M77.65,117.46l1.45-.19c.13.44.21.82.35,1.17a2.26,2.26,0,0,0,2.75,1.13,1.56,1.56,0,0,0,.54-2.5,9.74,9.74,0,0,0-1.21-.9c-.47-.31-1-.57-1.41-.9A3,3,0,0,1,78.89,112a2.82,2.82,0,0,1,2.36-2.34c2-.38,4.23.67,4.3,3.17l-1.21.23a.64.64,0,0,1-.26,0c-.09-.23-.19-.46-.26-.7a1.76,1.76,0,0,0-1.64-1.22,1.34,1.34,0,0,0-1.44.79A1.22,1.22,0,0,0,81,113.5a13.19,13.19,0,0,0,1.29.93,17.36,17.36,0,0,1,1.93,1.45,2.82,2.82,0,0,1,.47,3.35,3,3,0,0,1-2.55,1.93,5.38,5.38,0,0,1-2.54-.35A3.31,3.31,0,0,1,77.65,117.46Z"/><path class="cls-3" d="M69.05,115.51h1.51c0,.17.07.35.1.54a2.16,2.16,0,0,0,2.22,2,1.54,1.54,0,0,0,1.49-.91,1.45,1.45,0,0,0-.26-1.71,16.06,16.06,0,0,0-1.36-1.11c-.38-.29-.79-.54-1.15-.85a3.06,3.06,0,0,1-.74-3.8A3.13,3.13,0,0,1,74.32,108a3.19,3.19,0,0,1,2.75,2.15,10.27,10.27,0,0,1,.23,1.22l-1.56.24c-.07-.3-.11-.51-.16-.73a1.8,1.8,0,0,0-1.81-1.43,1.35,1.35,0,0,0-1.29.78,1.31,1.31,0,0,0,.24,1.55,13.22,13.22,0,0,0,1.24,1c.47.36,1,.68,1.4,1.07a3,3,0,0,1,.88,3.43,3.18,3.18,0,0,1-3,2.2,6.53,6.53,0,0,1-1.81-.25A3.35,3.35,0,0,1,69.05,115.51Z"/><path class="cls-3" d="M110.32,122.77l-1.16.07c-.13,0-.27,0-.52-.06l2.61-11.29,2-.09c1.17,3.64,2.32,7.23,3.46,10.81-.55.3-.71.33-1.74.25l-.87-2.68-3.23.13Zm1-4.4a7.94,7.94,0,0,0,2.35-.16c-.23-.81-.41-1.56-.66-2.29a6.35,6.35,0,0,0-.84-2.16A33.85,33.85,0,0,0,111.3,118.37Z"/><path class="cls-3" d="M66,105.91l1.79.58c-.11,3.85-.23,7.64-.41,11.53l-1.66-.46v-2.94l-3-1c-.32.51-.61,1-.89,1.45-.7,1.16-.69,1.16-2,.64a.41.41,0,0,1-.13-.1A114.54,114.54,0,0,1,66,105.91Zm.1,2.47-.23-.09-2.36,4a4.63,4.63,0,0,0,2.34.68Z"/><path class="cls-3" d="M90.18,19.71l-.48,2.8-1.62.15c.1-.6.17-1.12.27-1.63.31-1.61.64-3.22.94-4.84.22-1.21.39-2.43.59-3.64A5.78,5.78,0,0,0,90,12c0-.49.31-.69.76-.71l1.38-.08c1.34,3.53,2.67,7,4,10.66-.34,0-.6.1-.87.13l-.91.1-.72-2c-.26-.72-.31-.76-1-.69S91.05,19.61,90.18,19.71Zm2.58-1.81a13.46,13.46,0,0,0-1.71-4.35c-.22,1.52-.44,3-.67,4.58A5.29,5.29,0,0,0,92.76,17.9Z"/><path class="cls-3" d="M57.58,28.31c-.91.43-1.74.83-2.58,1.21-.36.17-.35.44-.27.77.16.71.28,1.42.43,2.17l-1.49.79L51.83,21.86,53.65,21l7.4,8.72-1.6.8Zm-1-1.18-3.21-4a15.68,15.68,0,0,0,1.14,5.08Z"/><path class="cls-3" d="M104,115.24l-1.68.22c-.07-.24-.11-.42-.16-.6a6.47,6.47,0,0,0-.24-.89,1.49,1.49,0,0,0-1.27-1.07,1.55,1.55,0,0,0-1.71.78,7.22,7.22,0,0,0-.67,2,11.2,11.2,0,0,0,0,3.42,5.34,5.34,0,0,0,.47,1.5,1.56,1.56,0,0,0,1.51.88,1.5,1.5,0,0,0,1.46-1c.17-.41.31-.83.48-1.27a2.38,2.38,0,0,1,1.51.19,3.48,3.48,0,0,1-5.16,3.14,3.33,3.33,0,0,1-1.74-1.93,9.8,9.8,0,0,1,0-6.65,3.64,3.64,0,0,1,2.76-2.55,3.29,3.29,0,0,1,3.95,2A15.67,15.67,0,0,1,104,115.24Z"/><path class="cls-3" d="M135.35,165.67c.11-.74.17-1.35.28-1.94.28-1.5.6-3,.88-4.5.15-.83,0-1-.82-1.1a6.29,6.29,0,0,1-1-.19c-.46-.13-.57-.37-.49-.91s.29-.82.75-.83a6.85,6.85,0,0,1,.91.1l4.87.76c.19,0,.39.06.58.11a.9.9,0,0,1,.51,1.52.77.77,0,0,1-.56.25c-.45,0-.89-.08-1.33-.1-.61,0-.7,0-.85.55-.2.78-.34,1.58-.52,2.37-.28,1.19-.59,2.37-.84,3.57a.62.62,0,0,1-.76.57C136.49,165.85,136,165.76,135.35,165.67Z"/><path class="cls-3" d="M51.24,164a.74.74,0,0,1,.6-.7c1.76-.53,3.51-1.09,5.27-1.64.24-.07.49-.1.74-.15.64-.12.77-.06,1,.45s.14.82-.38,1.11a4.82,4.82,0,0,1-.78.29c-.8.29-.92.49-.71,1.32.34,1.29.7,2.58,1,3.87.11.43.23.87.35,1.3a.59.59,0,0,1-.4.79c-1.4.64-1.71.52-2.16-.92-.36-1.17-.7-2.35-1.06-3.53-.09-.29-.21-.58-.31-.87a.68.68,0,0,0-.84-.5c-.39.07-.78.12-1.16.2C51.65,165.21,51.23,164.89,51.24,164Z"/><path class="cls-3" d="M98.26,163.64c-.06-.85-.15-1.68-.16-2.5,0-1.79,0-3.58,0-5.36,0-.73.15-.87.85-1,1.32-.19,1.58,0,1.59,1.39s0,3,.06,4.45c0,1.08.23,1.21,1.34,1.15.76,0,1.51-.07,2.26-.05a.9.9,0,1,1,.16,1.78,13.83,13.83,0,0,1-1.58.13c-1.28,0-2.57,0-3.85.06C98.75,163.72,98.56,163.67,98.26,163.64Z"/><path class="cls-3" d="M136,237.21c-.86.06-1,0-1.14-.81-.5-2.77-1-5.55-1.45-8.32a8.5,8.5,0,0,1-.16-1,.93.93,0,0,1,.16-.54,3.07,3.07,0,0,1,1.92-.29,1.31,1.31,0,0,1,.44.65c.24,1.09.43,2.19.63,3.29q.54,2.91,1.07,5.84c.14.79,0,1-.8,1.12C136.4,237.2,136.18,237.19,136,237.21Z"/><path class="cls-3" d="M108.29,231.44l-.12,6.71c0,.88-.12,1-1,1-1.72,0-1.5,0-1.5-1.48q0-4.23.05-8.46a1.82,1.82,0,0,1,0-.58c.06-.18.19-.43.32-.45a6.58,6.58,0,0,1,1.65-.11c.46,0,.6.32.61.85v2.52Z"/><path class="cls-3" d="M122.21,110.61l.11,1.53-2.4.29c.07,1.62.33,3.19.46,4.76s.3,3.11.45,4.69c-.42.37-.94.24-1.42.25-.31,0-.42-.24-.44-.51-.19-2-.37-4-.56-6-.09-1-.21-1.93-.34-3l-2.41.17-.16-1.49Z"/><path class="cls-3" d="M61,19.71c1.13,3,2.24,5.88,3.38,8.89l-1.64.65-3.45-8.9L57,21.19l-.57-1.4,6.27-2.42.58,1.39Z"/><path class="cls-3" d="M130.79,24.25l-1.73-.36c.63-3.12,1.25-6.16,1.89-9.32l-2.4-.59.36-1.42,6.51,1.34-.26,1.48-2.43-.45Z"/><path class="cls-3" d="M97.14,21.83c-.14-3.71-.29-7.3-.43-10.85a2.29,2.29,0,0,1,1.72-.2c.18,1.52.22,3.07.28,4.62s.09,3.11.14,4.73h3.93l.14,1.45Z"/><path class="cls-3" d="M64.93,168.67c-.46.18-.87.36-1.29.48-.61.18-.86.06-1-.58-.57-1.92-1.11-3.85-1.65-5.78-.09-.32-.18-.64-.25-1-.12-.65,0-.87.59-1.1a3,3,0,0,1,.39-.14c.87-.23,1.19-.06,1.42.79q.88,3.25,1.76,6.53A5.53,5.53,0,0,1,64.93,168.67Z"/><path class="cls-3" d="M105.5,122.77c0-3.69-.17-7.36-.07-11.11h1.79v11.11Z"/><path class="cls-3" d="M126.2,121.34l-1.75.29c-.56-3.69-1-7.32-1.52-11.07l1.77-.33C125.21,114,125.7,117.6,126.2,121.34Z"/><path class="cls-3" d="M69,26.87l-.16.14c-1.46.68-1.48.68-2-.8-.9-2.7-1.78-5.41-2.66-8.12-.1-.32-.17-.65-.28-1.07l1.63-.55Z"/><path class="cls-4" d="M160,67.06l-.36.84-1.42.13c.12-.72.23-1.31.33-1.91a12.94,12.94,0,0,0-1.34-7.79c-1.81-3.77-7.64-6.61-12-5.85a10,10,0,0,0-8.07,6.68,14,14,0,0,0-.1,8.59c.06.24.11.48.2.86-22.71,0-45.31,0-68.06,0,1.6-3.39,1.13-6.64-.19-9.79-1.4-3.32-4.18-5.07-7.58-6.1a3.37,3.37,0,0,1,1.78-.83,56.45,56.45,0,0,1,7-1.48c1.61-.22,3.22-.4,4.84-.53q4.73-.36,9.46-.65c2-.11,4.07-.15,6.11-.23,1.68-.06,3.36-.11,5-.19a4.63,4.63,0,0,0,3.66-2.07c1.41-2,2.83-3.9,4.25-5.85a1.11,1.11,0,0,1,.8-.62c-.67,1.92-1.28,3.73-1.94,5.53a29.42,29.42,0,0,0-1.66,5.43c.27.05.43.1.59.11l4.78.06c.84,0,.93-.09,1.16-.91s.43-1.5.61-2.26a3.85,3.85,0,0,0-.11-2.15,6.23,6.23,0,0,1-.17-.86l.17-.1a7,7,0,0,1,.66.67q2.19,2.66,4.35,5.34a2.27,2.27,0,0,0,2.12.93,2.81,2.81,0,0,0,.65-.16c1.33-.58,2.66-1.18,4-1.75,2.19-.93,4.37-1.85,6.57-2.74a1.51,1.51,0,0,1,2.2.58,2.16,2.16,0,0,0,1.66.91c2.12.18,4.22.5,6.34.72,2.72.28,5.45.5,8.17.77a24.91,24.91,0,0,1,5.7.9,13.57,13.57,0,0,1,7,4.78,11.69,11.69,0,0,1,1.36,2.77,24.36,24.36,0,0,1,1.2,6.16c0,.11,0,.22.06.45.65,0,1.31,0,2,.06,1.3,0,1.36.07,1.3,1.39a1.11,1.11,0,0,1-.09.16Z"/><path class="cls-4" d="M147.4,73.45a10,10,0,1,1,10-9.86A9.91,9.91,0,0,1,147.4,73.45Zm0-16.31a6.33,6.33,0,0,0,0,12.66,6.16,6.16,0,0,0,6.34-6.36A6.23,6.23,0,0,0,147.44,57.14Z"/><path class="cls-4" d="M59.1,73.45c-5.67,0-10-4.43-9.83-10.67a9.81,9.81,0,0,1,9.94-9.31,10,10,0,1,1-.11,20Zm-6.16-9.9a6.31,6.31,0,1,0,12.61-.25,6.31,6.31,0,0,0-12.61.25Z"/><path class="cls-4" d="M170.91,195c-.64,0-1.28-.07-1.92-.14a.68.68,0,0,0-.69.36,3.7,3.7,0,0,1-3.19,1.71,3.55,3.55,0,0,1-1.07-.15,5.68,5.68,0,0,1-2.74-1.68.91.91,0,0,0-.73-.3c-2.52-.12-5-.27-7.54-.36-2-.08-4.08-.08-6.12-.15-1.48-.05-2.95-.18-4.43-.26-1,0-2.07-.06-3.1-.1-1.5-.07-3-.17-4.5-.24-1.29-.06-2.58-.09-3.86-.13-.78,0-1.57,0-2.35-.11a1.11,1.11,0,0,0-1.11.57,7.24,7.24,0,0,1-11.85.06,1.21,1.21,0,0,1-.1-.14c-.32-1.27-1.36-1.52-2.44-1.81a7.22,7.22,0,0,1-2-.92c-1.08-.73-1.24-1.94-1.33-3.12-.08-1,0-1.95,0-2.92,0-.36-.13-.72-.17-1.08a2.62,2.62,0,0,1,0-.74c0-.3.24-.42.54-.34l.09,0c1.55.83,3.17.35,4.77.23.84-.07,1.67-.12,2.5-.24,1.16-.16,2.3-.44,3.47-.58a9.73,9.73,0,0,0,3-.83c.48-.22,1-.47,1.45-.65a16,16,0,0,1,6.12-1.19,66.52,66.52,0,0,1,8.33.8l3.63.59a7.39,7.39,0,0,1,2.64,1.05c1.1.65,2.23,1.28,3.28,2a11.21,11.21,0,0,0,4.47,1.59c2.86.52,5.72,1,8.57,1.58,1.86.35,3.72.73,5.56,1.16a19.53,19.53,0,0,1,2.44.84,3.89,3.89,0,0,1,1.77,1.61,4.15,4.15,0,0,0,1.74,1.63c.81.37.83.87.22,1.5a2.67,2.67,0,0,1-1.94.83h-1.35Zm-37.09-10.47c.1-.63.15-1.18.29-1.72a1.81,1.81,0,0,1,1.66-1.32,1.79,1.79,0,0,1,1.77,1.17,2.92,2.92,0,0,1,.29,1.62,2,2,0,0,0,.11.68c.45.05.86.1,1.28.12,1.39.06,2.79.12,4.19.16s2.73.06,4.1.09a1.37,1.37,0,0,0,1-.25,5,5,0,0,0-2-1.72,11.46,11.46,0,0,0-5.12-2c-1.74-.26-3.48-.45-5.23-.66a4.07,4.07,0,0,0-3.36.61c-.89.79-1.69,1.69-2.53,2.55-.06.07-.05.2-.09.36A7,7,0,0,0,133.82,184.57Zm-9.31-1.06a6,6,0,0,0,3.43.58,1.08,1.08,0,0,0,.49-.31c.87-.74,1.74-1.48,2.6-2.23a1.29,1.29,0,0,0,.59-.82A10.42,10.42,0,0,0,124.51,183.51Z"/><path class="cls-4" d="M100.46,176.41c-.23.13-.45.29-.68.4a3.22,3.22,0,0,1-.78.3,2.61,2.61,0,0,0-2,2c-.6,1.89-1.24,3.77-1.85,5.66-.21.65-.15.76.43,1.17a5.84,5.84,0,0,1,2.7,5.27A6.3,6.3,0,0,1,95.86,196a7.42,7.42,0,0,1-8.47.69,8.43,8.43,0,0,1-1.25-1,1.54,1.54,0,0,0-1.16-.37l-9.88.28c-1.59.05-3.18.16-4.77.19-3.22.08-6.44.13-9.65.19l-7.72.16c-1.92,0-3.85.09-5.78.12a3.45,3.45,0,0,0-2.26,1,4.32,4.32,0,0,1-3,1.09A3.57,3.57,0,0,1,39.08,197a3.2,3.2,0,0,1-.37-3.54,4.41,4.41,0,0,1,2.85-2.4c1.95-.48,3.74-.09,4.7,2,.21.44.44.49.92.41,1.7-.29,3.43-.46,5.13-.73,4.41-.71,8.82-1.43,13.18-2.42,1.15-.26,2.28-.58,3.4-.94a1.66,1.66,0,0,1,1.36.08,3.75,3.75,0,0,0,2.61.31.7.7,0,0,0,.68-.71,3.27,3.27,0,0,1,.3-.86,2.16,2.16,0,0,0,.16-.55,1.9,1.9,0,0,1,1.41-1.8,2.64,2.64,0,0,1,2.09.39c.61.45.72.42,1.33,0,.27-.2.51-.45.78-.63a1.4,1.4,0,0,1,.61-.24c.63-.06.81.16.65.78a1,1,0,0,1-.05.16c-.24.88-.2,1,.45,1.11s1.48.08,1.49-.81a2.93,2.93,0,0,1,.07-.41c.22-1.44.24-1.45,1.71-1.67l.33-.06c.92-.19.95-.22.74-1.13s.28-1.71,1.28-1.65a9.8,9.8,0,0,1,3.2.6,2,2,0,0,1,1.21,1.19,2,2,0,0,0,.54.73A.71.71,0,0,0,93,184c.75-1.5,1.47-3,2.19-4.53.08-.18.11-.38.17-.56a.54.54,0,0,0-.41-.77c-.33-.1-.66-.22-.64-.65a.81.81,0,0,1,.63-.72,6.24,6.24,0,0,1,1.37-.34c1.1-.14,2.21-.25,3.32-.35C99.91,176.07,100.22,176,100.46,176.41ZM45.39,193.72a3.53,3.53,0,0,0-.27-.82,2.48,2.48,0,0,0-1.71-1.12,3.55,3.55,0,0,0-3.48,1.55,2.34,2.34,0,0,0,.8,3.74,3,3,0,0,0,3.57-.67c-.44-.11-.84-.19-1.22-.31a9,9,0,0,1-1.48-.56.76.76,0,0,1-.42-.92c.11-.36.46-.33.77-.37C43,194.09,44.14,193.91,45.39,193.72Z"/><path class="cls-4" d="M104.91,171.38a11.22,11.22,0,0,1,.17,1.28c0,1.84,0,3.68.07,5.52.07,3,.17,6,.25,9,0,2,.09,4.08.14,6.12,0,1.48.09,2.95.14,4.43,0,.79.17.94.95.94,2,0,3.92,0,5.87-.05,3.75,0,7.5-.07,11.25-.12l8.73-.15c2.74,0,5.49,0,8.23,0,1.87,0,3.74-.11,5.61-.13,2.18,0,4.36,0,6.54,0l6.47,0,13.93-.11a2.19,2.19,0,0,1,.51,0,.47.47,0,0,1,.4.54.44.44,0,0,1-.47.48c-1.45.05-2.9.13-4.35.15-3,0-5.93.05-8.9.07-1.65,0-3.3,0-4.95,0-2.2,0-4.4.13-6.61.17-1.84,0-3.68,0-5.53,0-1.54,0-3.07.06-4.61.08-.75,0-1.51,0-2.26,0-3.81,0-7.61.13-11.41.15-4.28,0-8.56,0-12.84,0-1.79,0-3.58.1-5.37.12-1.62,0-3.24,0-4.85,0l-7.9,0c-1.59,0-3.18,0-4.78,0l-16.61.18-13.52.06H55.53c-1.06,0-2.12,0-3.18,0l-9.48.16c-1.42,0-2.85,0-4.27,0-.12,0-.26,0-.33,0s-.41-.28-.42-.43a.61.61,0,0,1,.37-.46,4.87,4.87,0,0,1,1.08-.07l12.18-.08,9.4-.07c2.1,0,4.19-.11,6.29-.12s4.2.07,6.29.07,3.87,0,5.8-.06l13-.23,8.81-.16h1.76a.52.52,0,0,0,.6-.54c0-.61.09-1.22.11-1.83.08-2.26.14-4.53.23-6.79.12-3.15.24-6.31.38-9.46.09-2,.2-4,.3-5.94,0-.66.07-1.33.11-2,0-.24.07-.48.1-.72Z"/><path class="cls-4" d="M160.29,102.11a3.44,3.44,0,0,1,3.53,3.48,3.53,3.53,0,1,1-3.53-3.48Zm-2.77,3.38a2.78,2.78,0,1,0,2.91-2.79A2.76,2.76,0,0,0,157.52,105.49Z"/><path class="cls-4" d="M172.58,216.61a3.44,3.44,0,0,1,3.51,3.5,3.53,3.53,0,1,1-3.51-3.5Zm2.77,3.44a2.79,2.79,0,1,0-5.57,0,2.79,2.79,0,1,0,5.57,0Z"/><path class="cls-1" d="M147.44,57.14a6.23,6.23,0,0,1,6.31,6.3,6.16,6.16,0,0,1-6.34,6.36,6.33,6.33,0,0,1,0-12.66Zm5.33,6.37a5.31,5.31,0,0,0-5.25-5.42,5.37,5.37,0,0,0-5.47,5.22,5.36,5.36,0,1,0,10.72.2Z"/><path class="cls-5" d="M52.94,63.55a6.31,6.31,0,1,1,6.49,6.24A6.18,6.18,0,0,1,52.94,63.55Zm.92-.11a5.37,5.37,0,1,0,5.39-5.35A5.29,5.29,0,0,0,53.86,63.44Z"/><path class="cls-1" d="M133.82,184.57a7,7,0,0,1-3.6-.26c0-.16,0-.29.09-.36.84-.86,1.64-1.76,2.53-2.55a4.07,4.07,0,0,1,3.36-.61c1.75.21,3.49.4,5.23.66a11.46,11.46,0,0,1,5.12,2,5,5,0,0,1,2,1.72,1.37,1.37,0,0,1-1,.25c-1.37,0-2.74-.05-4.1-.09s-2.8-.1-4.19-.16c-.42,0-.83-.07-1.28-.12a2,2,0,0,1-.11-.68,2.92,2.92,0,0,0-.29-1.62,1.79,1.79,0,0,0-1.77-1.17,1.81,1.81,0,0,0-1.66,1.32C134,183.39,133.92,183.94,133.82,184.57Z"/><path class="cls-1" d="M124.51,183.51a10.42,10.42,0,0,1,7.11-2.78,1.29,1.29,0,0,1-.59.82c-.86.75-1.73,1.49-2.6,2.23a1.08,1.08,0,0,1-.49.31A6,6,0,0,1,124.51,183.51Z"/><path class="cls-1" d="M45.39,193.72c-1.25.19-2.35.37-3.44.52-.31,0-.66,0-.77.37a.76.76,0,0,0,.42.92,9,9,0,0,0,1.48.56c.38.12.78.2,1.22.31a3,3,0,0,1-3.57.67,2.34,2.34,0,0,1-.8-3.74,3.55,3.55,0,0,1,3.48-1.55,2.48,2.48,0,0,1,1.71,1.12A3.53,3.53,0,0,1,45.39,193.72Z"/><path d="M125.19,214.06c-.23-.58-.23-.58.09-1.55C125.59,212.9,125.58,213.39,125.19,214.06Z"/><path class="cls-3" d="M157.52,105.49a2.78,2.78,0,1,1,5.56.18,2.78,2.78,0,1,1-5.56-.18Zm4.59.79c-.37-.17-.57-.07-.72.25a1,1,0,0,1-1,.59A1.37,1.37,0,0,1,159.1,106a1.57,1.57,0,0,1,.71-1.81,1.19,1.19,0,0,1,1.59.47.46.46,0,0,0,.69.17,1.59,1.59,0,0,0-2-1.35,1.91,1.91,0,0,0-1.8,2,2,2,0,0,0,1.72,2.22A1.73,1.73,0,0,0,162.11,106.28Z"/><path class="cls-3" d="M175.35,220.05a2.79,2.79,0,1,1-5.57,0,2.79,2.79,0,1,1,5.57,0Zm-4.17-2c0,1.31,0,2.51,0,3.7,0,.5.34.38.67.32l.09-1.56a.53.53,0,0,1,.76.24c.22.36.45.71.67,1.06a.55.55,0,0,0,.88.18l-.94-1.57c.09-.07.12-.11.17-.14.69-.42.89-.79.73-1.4A1.16,1.16,0,0,0,173,218C172.43,218,171.87,218,171.18,218Z"/><path class="cls-4" d="M152.77,63.51a5.36,5.36,0,1,1-10.72-.2,5.37,5.37,0,0,1,5.47-5.22A5.31,5.31,0,0,1,152.77,63.51Z"/><path class="cls-4" d="M53.86,63.44a5.37,5.37,0,1,1,5.35,5.42A5.34,5.34,0,0,1,53.86,63.44Z"/><path class="cls-4" d="M162.11,106.28a1.73,1.73,0,0,1-2.05,1.43,2,2,0,0,1-1.72-2.22,1.91,1.91,0,0,1,1.8-2,1.59,1.59,0,0,1,2,1.35.46.46,0,0,1-.69-.17,1.19,1.19,0,0,0-1.59-.47,1.57,1.57,0,0,0-.71,1.81,1.37,1.37,0,0,0,1.27,1.14,1,1,0,0,0,1-.59C161.54,106.21,161.74,106.11,162.11,106.28Z"/><path class="cls-4" d="M171.18,218c.69,0,1.25,0,1.8,0a1.16,1.16,0,0,1,1.23.82c.16.61,0,1-.73,1.4,0,0-.08.07-.17.14l.94,1.57a.55.55,0,0,1-.88-.18c-.22-.35-.45-.7-.67-1.06a.53.53,0,0,0-.76-.24l-.09,1.56c-.33.06-.66.18-.67-.32C171.16,220.52,171.18,219.32,171.18,218Zm.75,1.8a6.71,6.71,0,0,0,1.19-.14.63.63,0,0,0,.36-.47.65.65,0,0,0-.33-.48,1.35,1.35,0,0,0-1.22,0Z"/><path class="cls-3" d="M171.93,219.81v-1.08a1.35,1.35,0,0,1,1.22,0,.65.65,0,0,1,.33.48.63.63,0,0,1-.36.47A6.71,6.71,0,0,1,171.93,219.81Z"/><path class="cls-4" d="M75.18,205.44l1.62.38a2.11,2.11,0,0,1-.52.88,2.26,2.26,0,0,1-.87.54,4.12,4.12,0,0,1-1.32.18,5.1,5.1,0,0,1-1.6-.22,2.43,2.43,0,0,1-1.06-.78A2.18,2.18,0,0,1,71,205a2.13,2.13,0,0,1,.79-1.77,3.54,3.54,0,0,1,2.23-.62,3.67,3.67,0,0,1,1.78.36,2.19,2.19,0,0,1,1,1.09l-1.63.28a1.21,1.21,0,0,0-.18-.31,1.09,1.09,0,0,0-.38-.25,1.35,1.35,0,0,0-.5-.09,1.22,1.22,0,0,0-1,.39,1.41,1.41,0,0,0-.25.91,1.44,1.44,0,0,0,.3,1.06,1.2,1.2,0,0,0,.85.29,1.21,1.21,0,0,0,.8-.23A1.36,1.36,0,0,0,75.18,205.44Z"/><path class="cls-4" d="M77.7,202.69h1.85v1.63h2v-1.63h1.86v4.65H81.57v-1.88h-2v1.88H77.7Z"/><path class="cls-4" d="M88.33,206.57h-2.1l-.29.77H84.05l2.25-4.65h2l2.25,4.65H88.63Zm-.38-1-.66-1.67-.66,1.67Z"/><path class="cls-4" d="M91.13,202.69h2.43l.94,2.83.93-2.83h2.43v4.65H96.35V203.8l-1.17,3.54H93.81l-1.16-3.54v3.54H91.13Z"/><path class="cls-4" d="M99,202.69h3.07a2.6,2.6,0,0,1,1.51.37,1.25,1.25,0,0,1,.5,1.06,1.3,1.3,0,0,1-.55,1.1,2.86,2.86,0,0,1-1.66.39h-1v1.73H99Zm1.86,2h.45a1.37,1.37,0,0,0,.75-.14.43.43,0,0,0,.22-.37.47.47,0,0,0-.19-.37,1.2,1.2,0,0,0-.71-.15h-.52Z"/><path class="cls-4" d="M105.15,202.69H107v4.65h-1.85Z"/><path class="cls-4" d="M108.09,205a2.09,2.09,0,0,1,.82-1.77,4.43,4.43,0,0,1,4.57,0,2.06,2.06,0,0,1,.81,1.74,2.4,2.4,0,0,1-.35,1.34,2.46,2.46,0,0,1-1,.81,4.27,4.27,0,0,1-1.67.29,4.94,4.94,0,0,1-1.67-.25,2.39,2.39,0,0,1-1.07-.8A2.13,2.13,0,0,1,108.09,205Zm1.85,0a1.33,1.33,0,0,0,2.18,1,1.47,1.47,0,0,0,.32-1.08,1.21,1.21,0,0,0-.34-1,1.34,1.34,0,0,0-.92-.3,1.26,1.26,0,0,0-.9.31A1.28,1.28,0,0,0,109.94,205Z"/><path class="cls-4" d="M115.3,202.69H117l2.26,2.57v-2.57H121v4.65h-1.74L117,204.79v2.55H115.3Z"/><path class="cls-4" d="M121.92,205.8l1.76-.08a.93.93,0,0,0,.23.5,1.12,1.12,0,0,0,.82.28,1.06,1.06,0,0,0,.61-.14.42.42,0,0,0,.21-.34.39.39,0,0,0-.2-.32,3.1,3.1,0,0,0-.95-.27,4.69,4.69,0,0,1-1.73-.56,1,1,0,0,1-.52-.9,1,1,0,0,1,.27-.67,1.62,1.62,0,0,1,.8-.5,4.48,4.48,0,0,1,1.47-.19,3.71,3.71,0,0,1,1.75.34,1.36,1.36,0,0,1,.71,1.05l-1.74.08a.71.71,0,0,0-.29-.46,1.17,1.17,0,0,0-.61-.14.92.92,0,0,0-.49.1.32.32,0,0,0-.16.26.23.23,0,0,0,.13.2,1.77,1.77,0,0,0,.62.17,10.75,10.75,0,0,1,1.74.41,1.73,1.73,0,0,1,.76.52,1.07,1.07,0,0,1,.24.69,1.27,1.27,0,0,1-.32.82,2,2,0,0,1-.89.57,4.5,4.5,0,0,1-1.44.2,3.59,3.59,0,0,1-2.11-.46A1.65,1.65,0,0,1,121.92,205.8Z"/><path class="cls-4" d="M128.29,202.69h1.85v1.63h2v-1.63H134v4.65h-1.86v-1.88h-2v1.88h-1.85Z"/><path class="cls-4" d="M135.31,202.69h1.86v4.65h-1.86Z"/><path class="cls-4" d="M138.48,202.69h3.07a2.6,2.6,0,0,1,1.51.37,1.25,1.25,0,0,1,.5,1.06,1.28,1.28,0,0,1-.55,1.1,2.84,2.84,0,0,1-1.66.39h-1v1.73h-1.86Zm1.86,2h.45a1.37,1.37,0,0,0,.75-.14.43.43,0,0,0,.22-.37.44.44,0,0,0-.19-.37,1.17,1.17,0,0,0-.7-.15h-.53Z"/><path class="cls-6" d="M76.12,209.52h1.77a5.33,5.33,0,0,1,1.32.13,1.49,1.49,0,0,1,.77.42,1.62,1.62,0,0,1,.44,1.18,6.85,6.85,0,0,1-.45,2,8,8,0,0,1-1,2,3.45,3.45,0,0,1-1.3,1.11,7,7,0,0,1-3,.48H73.55ZM75.3,216a3,3,0,0,0,2-.54,4.93,4.93,0,0,0,1.19-2.12,4.11,4.11,0,0,0,.38-2.32c-.14-.42-.6-.63-1.37-.63h-.18Z"/><path class="cls-6" d="M82.71,209.52h1.9a2.52,2.52,0,0,1,1.62.39,1.31,1.31,0,0,1,.19,1.51,2.76,2.76,0,0,1-.83,1.26,2.51,2.51,0,0,1-1.3.59l.72,3.55H83.55l-.71-3.57-1.25,3.57H80.15Zm.31,3.24a2.45,2.45,0,0,0,1.27-.27,1.55,1.55,0,0,0,.66-.89,1.87,1.87,0,0,0,.13-.58.63.63,0,0,0-.09-.4.56.56,0,0,0-.32-.22,1.78,1.78,0,0,0-.56-.07h-.24Z"/><path class="cls-6" d="M90.21,209.52h1.12l-.27,7.3H89.63l.1-1.42H87.61l-.91,1.42H85.32Zm-.42,5.12.09-1.17a21.19,21.19,0,0,1,.37-2.53c-.22.44-.46.88-.72,1.33s-.54.93-.86,1.43l-.59.94Z"/><path class="cls-6" d="M95.77,213h2.61l-.1.29a7.27,7.27,0,0,1-1.56,2.87,3.19,3.19,0,0,1-2.29.77c-1,0-1.64-.28-1.88-.85a4.48,4.48,0,0,1,.37-2.86,6.69,6.69,0,0,1,1.78-3.06,3.64,3.64,0,0,1,2.29-.71,2.63,2.63,0,0,1,1.52.34,1.48,1.48,0,0,1,.52,1.15l-1.48.38a1.76,1.76,0,0,0,0-.48.81.81,0,0,0-.13-.31.94.94,0,0,0-.71-.22,1.46,1.46,0,0,0-1.2.61,8.85,8.85,0,0,0-1.06,2.27,6.51,6.51,0,0,0-.52,2.25c0,.39.31.58.81.58a1.53,1.53,0,0,0,1.11-.41,4.15,4.15,0,0,0,.79-1.43l.06-.2.06-.15H95.47Z"/><path class="cls-6" d="M104,209.52h1.9a2.52,2.52,0,0,1,1.62.39,1.31,1.31,0,0,1,.19,1.51,2.84,2.84,0,0,1-.83,1.26,2.51,2.51,0,0,1-1.3.59l.72,3.55H104.8l-.71-3.57-1.25,3.57H101.4Zm.31,3.24a2.42,2.42,0,0,0,1.27-.27,1.55,1.55,0,0,0,.66-.89,1.87,1.87,0,0,0,.13-.58.63.63,0,0,0-.09-.4.56.56,0,0,0-.32-.22,1.78,1.78,0,0,0-.56-.07h-.24Z"/><path class="cls-6" d="M111.46,209.52h1.12l-.27,7.3h-1.43l.1-1.42h-2.12l-.91,1.42h-1.38Zm-.42,5.12.09-1.17a21.19,21.19,0,0,1,.37-2.53c-.22.44-.46.88-.72,1.33s-.54.93-.86,1.43l-.59.94Z"/><path class="cls-6" d="M119.77,209.64l-.31.88a2.6,2.6,0,0,0-.87-.18,2.52,2.52,0,0,0-.93.17,2.72,2.72,0,0,0-.8.53,4.47,4.47,0,0,0-.67.91,9.67,9.67,0,0,0-.57,1.31c-.63,1.8-.28,2.7,1.08,2.7a3.62,3.62,0,0,0,.9-.15l-.32.9a3.87,3.87,0,0,1-1.23.2q-3.24,0-2-3.62a6.58,6.58,0,0,1,1.81-2.91,4.14,4.14,0,0,1,2.76-1A2.9,2.9,0,0,1,119.77,209.64Z"/><path class="cls-6" d="M121,209.52h1.44l-2.56,7.3h-1.44Z"/><path class="cls-6" d="M124.11,209.52h1.34l.41,2.91a17.06,17.06,0,0,1,.17,2.64c.09-.57.18-1.08.29-1.53a9.3,9.3,0,0,1,.37-1.29l1-2.73h1.45l-2.56,7.3h-1.35l-.46-3.28c0-.31-.07-.62-.09-.95s0-.65,0-1a.71.71,0,0,0,0-.16c0-.06,0-.13,0-.22,0,.09,0,.16,0,.21s0,.11,0,.15l-.19.75-.24.9a.94.94,0,0,1-.06.18c0,.08,0,.16-.08.25l-1,3.18h-1.42Z"/><path class="cls-6" d="M132.08,213h2.62l-.1.29a7.27,7.27,0,0,1-1.56,2.87,3.2,3.2,0,0,1-2.29.77c-1,0-1.65-.28-1.88-.85a4.53,4.53,0,0,1,.36-2.86,6.78,6.78,0,0,1,1.78-3.06,3.64,3.64,0,0,1,2.29-.71,2.61,2.61,0,0,1,1.52.34,1.45,1.45,0,0,1,.52,1.15l-1.47.38a2.28,2.28,0,0,0,0-.48.81.81,0,0,0-.14-.31.92.92,0,0,0-.71-.22,1.43,1.43,0,0,0-1.19.61,8.8,8.8,0,0,0-1.07,2.27,6.42,6.42,0,0,0-.51,2.25c0,.39.31.58.81.58a1.53,1.53,0,0,0,1.1-.41,3.84,3.84,0,0,0,.79-1.43l.07-.2,0-.15h-1.25Z"/><path class="cls-4" d="M53.69,77.74a3.37,3.37,0,0,1,1.47.28,2,2,0,0,1,.87.79,3.3,3.3,0,0,1,.42,1.24,10,10,0,0,1,.11,1.62,10.1,10.1,0,0,1-.14,1.85,3.28,3.28,0,0,1-.48,1.29,2.05,2.05,0,0,1-.91.76,3.74,3.74,0,0,1-1.45.25H50.82V77.74Zm-.34,6.88a1.54,1.54,0,0,0,.74-.15,1,1,0,0,0,.45-.49,2.69,2.69,0,0,0,.22-.89c0-.37.05-.83.05-1.38s0-.86-.05-1.21a2.79,2.79,0,0,0-.2-.86,1.05,1.05,0,0,0-.45-.52,1.53,1.53,0,0,0-.8-.18h-.74v5.68Z"/><path class="cls-4" d="M62.58,79.08H59.47V81h2.92v1.33H59.47v2.17H62.7v1.34h-5V77.74h4.86Z"/><path class="cls-4" d="M66.53,77.74A3.37,3.37,0,0,1,68,78a2,2,0,0,1,.87.79,3.3,3.3,0,0,1,.42,1.24,10,10,0,0,1,.11,1.62,10.1,10.1,0,0,1-.14,1.85,3.28,3.28,0,0,1-.48,1.29,2.11,2.11,0,0,1-.91.76,3.77,3.77,0,0,1-1.45.25H63.66V77.74Zm-.34,6.88a1.57,1.57,0,0,0,.74-.15,1,1,0,0,0,.45-.49,2.71,2.71,0,0,0,.21-.89,13.2,13.2,0,0,0,.06-1.38c0-.46,0-.86-.05-1.21a2.79,2.79,0,0,0-.2-.86,1.05,1.05,0,0,0-.45-.52,1.53,1.53,0,0,0-.8-.18h-.74v5.68Z"/><path class="cls-4" d="M70.64,77.74H72.4v8.08H70.64Z"/><path class="cls-4" d="M77.18,79.19A1,1,0,0,0,75.82,79a1.05,1.05,0,0,0-.33.53,4.07,4.07,0,0,0-.17,1c0,.4,0,.88,0,1.45a14.51,14.51,0,0,0,.06,1.48,3.44,3.44,0,0,0,.21.88.79.79,0,0,0,.35.42,1.15,1.15,0,0,0,.5.11,1.26,1.26,0,0,0,.43-.08.73.73,0,0,0,.35-.29,2.18,2.18,0,0,0,.23-.62,5.94,5.94,0,0,0,.08-1.06h1.75A6.15,6.15,0,0,1,79.12,84a2.55,2.55,0,0,1-.4,1,1.92,1.92,0,0,1-.84.69,3.33,3.33,0,0,1-1.41.25,3.6,3.6,0,0,1-1.57-.29A2,2,0,0,1,74,84.8a3.47,3.47,0,0,1-.4-1.32,14.42,14.42,0,0,1,0-3.39,3.47,3.47,0,0,1,.4-1.33,2.06,2.06,0,0,1,.89-.86,3.32,3.32,0,0,1,1.57-.31,3.2,3.2,0,0,1,1.48.28,2,2,0,0,1,.81.72,2.25,2.25,0,0,1,.33.94,6.32,6.32,0,0,1,.07.94H77.41A2.7,2.7,0,0,0,77.18,79.19Z"/><path class="cls-4" d="M84.09,77.74l2.3,8.08H84.56l-.4-1.71H81.85l-.4,1.71H79.62l2.3-8.08Zm-.23,5L83,79.15h0l-.84,3.63Z"/><path class="cls-4" d="M91.42,79.08h-1.9v6.74H87.76V79.08H85.87V77.74h5.55Z"/><path class="cls-4" d="M97,79.08h-3.1V81h2.92v1.33H93.92v2.17h3.23v1.34h-5V77.74H97Z"/><path class="cls-4" d="M101,77.74a3.37,3.37,0,0,1,1.47.28,2,2,0,0,1,.87.79,3.3,3.3,0,0,1,.42,1.24,10,10,0,0,1,.11,1.62,10.1,10.1,0,0,1-.14,1.85,3.28,3.28,0,0,1-.48,1.29,2.11,2.11,0,0,1-.91.76,3.77,3.77,0,0,1-1.45.25H98.11V77.74Zm-.34,6.88a1.57,1.57,0,0,0,.74-.15,1,1,0,0,0,.45-.49,2.71,2.71,0,0,0,.21-.89,13.2,13.2,0,0,0,.06-1.38c0-.46,0-.86,0-1.21a2.79,2.79,0,0,0-.2-.86,1.05,1.05,0,0,0-.45-.52,1.53,1.53,0,0,0-.8-.18h-.74v5.68Z"/><path class="cls-4" d="M112.56,79.08h-1.89v6.74h-1.76V79.08H107V77.74h5.54Z"/><path class="cls-4" d="M113.23,80.09a3.47,3.47,0,0,1,.4-1.33,2.11,2.11,0,0,1,.89-.86,4.13,4.13,0,0,1,3.14,0,2.14,2.14,0,0,1,.9.86,3.65,3.65,0,0,1,.4,1.33,16,16,0,0,1,0,3.39,3.66,3.66,0,0,1-.4,1.32,2.11,2.11,0,0,1-.9.85,4.39,4.39,0,0,1-3.14,0,2.09,2.09,0,0,1-.89-.85,3.47,3.47,0,0,1-.4-1.32,16,16,0,0,1,0-3.39Zm1.7,3.08a3.79,3.79,0,0,0,.17.92,1,1,0,0,0,1,.69,1.09,1.09,0,0,0,.63-.17,1,1,0,0,0,.37-.52,3.4,3.4,0,0,0,.16-.92c0-.39,0-.85,0-1.39s0-1,0-1.38a3.64,3.64,0,0,0-.16-.93,1,1,0,0,0-.37-.52,1.09,1.09,0,0,0-.63-.17,1,1,0,0,0-1,.69,4.08,4.08,0,0,0-.17.93c0,.38,0,.84,0,1.38S114.9,82.78,114.93,83.17Z"/><path class="cls-4" d="M124.42,83.53a2.14,2.14,0,0,0,0,.52.88.88,0,0,0,.18.39,1,1,0,0,0,.36.25,1.53,1.53,0,0,0,.56.09,1.15,1.15,0,0,0,.73-.25.89.89,0,0,0,.32-.75,1.32,1.32,0,0,0-.08-.47.87.87,0,0,0-.26-.35,1.57,1.57,0,0,0-.48-.29,6.67,6.67,0,0,0-.74-.27,7.13,7.13,0,0,1-1-.39,2.75,2.75,0,0,1-.71-.51,1.77,1.77,0,0,1-.42-.66,2.67,2.67,0,0,1-.13-.88,2.21,2.21,0,0,1,.71-1.79,3.05,3.05,0,0,1,2-.58,5.1,5.1,0,0,1,1.07.11,2.22,2.22,0,0,1,.85.39,1.77,1.77,0,0,1,.56.68,2.13,2.13,0,0,1,.2,1V80h-1.67a1.54,1.54,0,0,0-.22-.88.83.83,0,0,0-.73-.32,1.36,1.36,0,0,0-.49.08,1.05,1.05,0,0,0-.31.21.73.73,0,0,0-.16.3,1.39,1.39,0,0,0,0,.35,1.14,1.14,0,0,0,.17.63,1.5,1.5,0,0,0,.73.47l1.35.54a4.75,4.75,0,0,1,.82.43,2.06,2.06,0,0,1,.5.47,1.51,1.51,0,0,1,.26.56,2.84,2.84,0,0,1,.07.68,2.15,2.15,0,0,1-.79,1.86,3.69,3.69,0,0,1-2.22.58,3.08,3.08,0,0,1-2.13-.6,2.26,2.26,0,0,1-.64-1.72V83.3h1.76Z"/><path class="cls-4" d="M133.18,77.74l2.3,8.08h-1.83l-.4-1.71h-2.31l-.4,1.71h-1.83l2.3-8.08Zm-.23,5-.84-3.63h0l-.84,3.63Z"/><path class="cls-4" d="M140.94,77.74v1.34h-3.1V81h2.92v1.33h-2.92v3.51h-1.75V77.74Z"/><path class="cls-4" d="M146.58,79.08h-3.11V81h2.92v1.33h-2.92v2.17h3.23v1.34h-5V77.74h4.86Z"/><path class="cls-4" d="M152.66,79.08h-1.9v6.74H149V79.08h-1.9V77.74h5.55Z"/><path class="cls-4" d="M156,80.86h0l1.22-3.12h1.9l-2.25,4.9v3.18h-1.76V82.64l-2.25-4.9h2Z"/><rect class="cls-7" width="210" height="248.82"/></svg>